#N canvas 686 35 677 708 12;
#N canvas 3 35 1360 708 mix 0;
#X obj 243 97 pd-dmtools/3band~;
#N canvas 156 156 450 300 load 0;
#X obj 17 12 loadbang;
#X obj 17 60 outlet;
#X msg 17 36 low 0 \, mid 0 \, hi -12 \, freq low 500 \, freq hi 1500
;
#X connect 0 0 2 0;
#X connect 2 0 1 0;
#X restore 329 98 pd load;
#X obj 475 67 pd-dmtools/3band~;
#X obj 475 12 r~ \$0-polyL;
#X obj 566 12 r~ \$0-polyR;
#N canvas 3 35 1360 708 load 0;
#X obj 17 12 loadbang;
#X obj 17 60 outlet;
#X msg 17 36 mid -3 \, hi -9 \, freq low 300 \, freq hi 1000;
#X connect 0 0 2 0;
#X connect 2 0 1 0;
#X restore 561 67 pd load;
#X obj 339 153 line;
#X msg 339 178 hi \$1;
#X obj 12 164 lop~;
#X obj 103 164 lop~;
#X obj 128 109 line;
#X obj 128 134 pow 2;
#X obj 774 435 r \$0-rec;
#X obj 774 459 sel 1 0;
#X msg 774 584 start;
#X msg 820 584 stop;
#X obj 774 531 t b b;
#X msg 485 551 open ./stems/poly\$1.wav;
#X msg 253 551 open ./stems/box\$1.wav;
#X msg 22 551 open ./stems/pull\$1.wav;
#X obj 774 483 t b b;
#X obj 688 483 + 1;
#X obj 688 507 t f f;
#X obj 774 507 delay 5;
#X obj 774 555 delay 5;
#X msg 720 531 set \$1;
#X obj 670 531 f;
#X msg 688 459 0;
#X obj 571 122 line;
#X msg 571 147 low \$1;
#X obj 571 97 r \$0-poly-low-gain;
#X obj 339 128 r \$0-box-hi-gain;
#X obj 128 84 r \$0-pull-lop;
#X obj 622 122 r \$0-poly-hi-gain;
#X obj 622 147 line;
#X msg 622 172 hi \$1;
#X obj 243 12 r~ \$0-box-loop;
#X obj 364 12 r~ \$0-grano;
#N canvas 686 35 677 708 poly-rev 0;
#X obj 31 59 inlet~;
#X obj 101 59 inlet~;
#X obj 49 204 r \$0-poly-rev-drywet;
#X obj 136 384 *~;
#X obj 172 384 *~;
#X obj 49 234 unpack, f 19;
#X obj 154 294 pack;
#X obj 49 294 pack;
#X obj 49 264 expr 1-$f1;
#X obj 154 319 line~;
#X obj 49 344 line~;
#X obj 154 344 *~ 1.5;
#X obj 31 384 *~;
#X obj 101 384 *~;
#X obj 31 433 outlet~;
#X obj 101 433 outlet~;
#X obj 284 260 pd-dmtools/gv~;
#N canvas 914 35 449 708 load 0;
#X obj 31 56 loadbang;
#X obj 31 121 outlet;
#X msg 31 81 room 15 \, time 90 \, damp 0.419355 \, early 80.6452 \,
tail 19.3548;
#X connect 0 0 2 0;
#X connect 2 0 1 0;
#X restore 364 260 pd load;
#X msg 341 205 time 10;
#X connect 0 0 12 0;
#X connect 0 0 16 0;
#X connect 1 0 13 0;
#X connect 1 0 16 1;
#X connect 2 0 5 0;
#X connect 3 0 14 0;
#X connect 4 0 15 0;
#X connect 5 0 6 0;
#X connect 5 0 8 0;
#X connect 5 1 6 1;
#X connect 5 1 7 1;
#X connect 6 0 9 0;
#X connect 7 0 10 0;
#X connect 8 0 7 0;
#X connect 9 0 11 0;
#X connect 10 0 12 1;
#X connect 10 0 13 1;
#X connect 11 0 3 1;
#X connect 11 0 4 1;
#X connect 12 0 14 0;
#X connect 13 0 15 0;
#X connect 16 0 3 0;
#X connect 16 1 4 0;
#X connect 17 0 16 2;
#X connect 18 0 16 2;
#X restore 475 205 pd poly-rev;
#X f 12;
#X obj 485 269 throw~ \$0-fL;
#X obj 512 293 throw~ \$0-fR;
#X obj 566 343 throw~ \$0-rL;
#X obj 539 319 throw~ \$0-rR;
#X obj 475 604 writesf~ 4, f 12;
#X obj 12 12 r~ \$0-pull;
#X obj 114 12 r~ \$0-rev;
#N canvas 686 35 677 708 pullrev-gain 0;
#X obj 146 324 *~;
#X obj 202 324 *~;
#X msg 220 249 \$1 1;
#X obj 220 274 line~;
#X obj 146 194 inlet~;
#X obj 202 194 inlet~;
#X obj 146 354 outlet~;
#X obj 202 354 outlet~;
#X obj 220 224 r \$0-pull-gain;
#X obj 399 293 r \$0-a;
#X obj 344 188 / 60000;
#X obj 404 133 % 60000;
#X obj 344 108 t f f, f 9;
#X obj 344 163 -;
#X obj 404 158 * 0.001;
#X floatatom 344 213 5 0 0 0 - - -;
#X floatatom 404 213 5 0 0 0 - - -;
#X obj 399 323 delay 290000;
#X msg 399 348 2.8;
#X obj 399 388 s \$0-pull-gain;
#X obj 511 323 delay 300500;
#X msg 511 348 0;
#X obj 227 476 delay 221500;
#X msg 227 501 0;
#X msg 344 83 224500;
#X obj 370 557 delay 224500;
#X msg 370 582 2.8;
#X connect 0 0 6 0;
#X connect 1 0 7 0;
#X connect 2 0 3 0;
#X connect 3 0 1 1;
#X connect 3 0 0 1;
#X connect 4 0 0 0;
#X connect 5 0 1 0;
#X connect 8 0 2 0;
#X connect 9 0 17 0;
#X connect 9 0 20 0;
#X connect 9 0 22 0;
#X connect 9 0 25 0;
#X connect 10 0 15 0;
#X connect 11 0 13 1;
#X connect 11 0 14 0;
#X connect 12 0 13 0;
#X connect 12 1 11 0;
#X connect 13 0 10 0;
#X connect 14 0 16 0;
#X connect 17 0 18 0;
#X connect 18 0 19 0;
#X connect 20 0 21 0;
#X connect 21 0 19 0;
#X connect 22 0 23 0;
#X connect 23 0 19 0;
#X connect 24 0 12 0;
#X connect 25 0 26 0;
#X connect 26 0 19 0;
#X restore 12 42 pd pullrev-gain;
#X obj 12 604 writesf~ 4, f 15;
#N canvas 686 35 677 708 poly-pan 0;
#X obj 121 169 random 1000;
#X obj 307 169 random 1000;
#X obj 216 169 random 1000;
#X obj 216 194 * 0.001;
#X obj 402 169 random 1000;
#X obj 402 194 * 0.001;
#X obj 168 119 random 1000;
#X obj 168 144 * 0.001;
#X obj 121 90 t b b b;
#X obj 121 194 * 0.001;
#X obj 307 194 * 0.001;
#X msg 454 567 \$1 5;
#X obj 454 591 line~;
#X obj 510 567 == 0;
#X msg 510 591 \$1 5;
#X obj 510 615 line~;
#X obj 121 65 sel 0;
#X obj 121 40 random 6;
#X obj 259 110 s \$0-impulse-pw-change;
#X obj 121 219 pd-dmtools/pw~;
#X obj 307 219 pd-dmtools/pw~;
#X obj 121 -10 r \$0-poly-note;
#X obj 482 434 t b b, f 10;
#X obj 549 482 + 250;
#X obj 549 458 random 2000;
#X obj 482 410 metro;
#X obj 482 542 tgl 15 0 empty empty empty 17 7 0 10 -262144 -1 -1 0
1;
#X obj 482 458 random 3;
#X obj 482 482 != 0;
#X obj 492 512 r \$0-poly-pw-stereo;
#X obj 482 381 r \$0-poly-pw-stereo-random;
#X obj 15 409 SimpleAmbisonics/quady~;
#X obj 68 339 phasor~ 0.12;
#X obj 307 269 +~ 1;
#X obj 201 409 SimpleAmbisonics/quady~;
#X obj 254 379 +~ 0.25;
#X obj 15 339 inlet~;
#X obj 201 339 inlet~;
#X obj 367 299 t b f, f 6;
#X msg 367 324 1000;
#X obj 367 349 /, f 6;
#X obj 307 244 *~ 0.8;
#X obj 367 249 loadbang;
#X obj 15 571 +~;
#X obj 50 571 +~;
#X obj 85 571 +~;
#X obj 121 571 +~;
#X obj 121 671 outlet~;
#X obj 85 646 outlet~;
#X obj 50 621 outlet~;
#X obj 15 596 outlet~;
#X msg 121 15 bang;
#X msg 556 154 1;
#X obj 556 179 -;
#X obj 33 224 t b f;
#X obj 33 274 sel 0;
#X obj 556 204 - 0.5;
#X obj 556 304 line~;
#X msg 556 279 \$1 200;
#X obj 33 249 random 2;
#X obj 556 254 + 0.2;
#X obj 556 229 * 0.3;
#X obj 177 244 *~ 0.5;
#X obj 177 269 +~ 0.5;
#X obj 15 364 *~;
#X obj 201 364 *~;
#X obj 251 244 *~ 0.5;
#X obj 251 269 +~ 0.5;
#X obj 307 379 lop~;
#X obj 121 379 lop~;
#X msg 367 274 1000;
#X obj 177 294 *~;
#X obj 251 294 *~;
#X obj 724 153 r \$0-poly-offset;
#X obj 724 178 sel 0 70, f 9;
#X msg 724 203 0;
#X obj 724 253 line~;
#X obj 362 394 *~;
#X obj 156 398 *~;
#X msg 754 203 1;
#X obj 800 234 == 0;
#X obj 800 284 line~;
#X msg 724 228 \$1 10;
#X msg 800 259 \$1 10;
#X obj 121 269 +~ 1;
#X obj 121 244 *~ 0.85;
#X connect 0 0 9 0;
#X connect 1 0 10 0;
#X connect 2 0 3 0;
#X connect 3 0 19 2;
#X connect 4 0 5 0;
#X connect 5 0 20 2;
#X connect 6 0 7 0;
#X connect 7 0 19 1;
#X connect 7 0 20 1;
#X connect 8 0 1 0;
#X connect 8 0 0 0;
#X connect 8 1 4 0;
#X connect 8 1 2 0;
#X connect 8 2 6 0;
#X connect 8 2 18 0;
#X connect 9 0 19 0;
#X connect 9 0 54 0;
#X connect 10 0 20 0;
#X connect 11 0 12 0;
#X connect 12 0 72 1;
#X connect 12 0 71 1;
#X connect 13 0 14 0;
#X connect 14 0 15 0;
#X connect 15 0 65 1;
#X connect 15 0 64 1;
#X connect 16 0 8 0;
#X connect 17 0 16 0;
#X connect 19 0 62 0;
#X connect 19 0 85 0;
#X connect 20 0 41 0;
#X connect 20 0 66 0;
#X connect 21 0 51 0;
#X connect 22 0 27 0;
#X connect 22 1 24 0;
#X connect 23 0 25 1;
#X connect 24 0 23 0;
#X connect 25 0 22 0;
#X connect 26 0 11 0;
#X connect 26 0 13 0;
#X connect 27 0 28 0;
#X connect 28 0 26 0;
#X connect 29 0 26 0;
#X connect 30 0 25 0;
#X connect 31 0 43 0;
#X connect 31 1 44 0;
#X connect 31 2 45 0;
#X connect 31 3 46 0;
#X connect 32 0 35 0;
#X connect 32 0 31 1;
#X connect 33 0 68 0;
#X connect 34 0 43 1;
#X connect 34 1 44 1;
#X connect 34 2 45 1;
#X connect 34 3 46 1;
#X connect 35 0 34 1;
#X connect 36 0 64 0;
#X connect 37 0 65 0;
#X connect 38 0 39 0;
#X connect 38 1 40 1;
#X connect 39 0 40 0;
#X connect 40 0 68 1;
#X connect 40 0 69 1;
#X connect 41 0 33 0;
#X connect 42 0 70 0;
#X connect 43 0 50 0;
#X connect 44 0 49 0;
#X connect 45 0 48 0;
#X connect 46 0 47 0;
#X connect 51 0 17 0;
#X connect 52 0 53 0;
#X connect 53 0 56 0;
#X connect 54 0 59 0;
#X connect 54 1 53 1;
#X connect 55 0 52 0;
#X connect 56 0 61 0;
#X connect 57 0 32 0;
#X connect 58 0 57 0;
#X connect 59 0 55 0;
#X connect 60 0 58 0;
#X connect 61 0 60 0;
#X connect 62 0 63 0;
#X connect 63 0 71 0;
#X connect 64 0 31 0;
#X connect 65 0 34 0;
#X connect 66 0 67 0;
#X connect 67 0 72 0;
#X connect 68 0 77 0;
#X connect 69 0 78 0;
#X connect 70 0 38 0;
#X connect 71 0 64 1;
#X connect 72 0 65 1;
#X connect 73 0 74 0;
#X connect 74 0 75 0;
#X connect 74 1 79 0;
#X connect 75 0 82 0;
#X connect 75 0 80 0;
#X connect 76 0 77 1;
#X connect 76 0 78 1;
#X connect 77 0 34 2;
#X connect 78 0 31 2;
#X connect 79 0 82 0;
#X connect 79 0 80 0;
#X connect 80 0 83 0;
#X connect 81 0 34 2;
#X connect 81 0 31 2;
#X connect 82 0 76 0;
#X connect 83 0 81 0;
#X connect 84 0 69 0;
#X connect 85 0 84 0;
#X restore 475 235 pd poly-pan;
#X f 12;
#X obj 22 264 throw~ \$0-fL;
#X obj 56 288 throw~ \$0-fR;
#X obj 124 338 throw~ \$0-rL;
#X obj 90 314 throw~ \$0-rR;
#X obj 814 79 catch~ \$0-fL;
#X obj 837 103 catch~ \$0-fR;
#X obj 861 129 catch~ \$0-rR;
#X obj 885 153 catch~ \$0-rL;
#X obj 814 183 dym/quadroute~;
#X obj 243 604 writesf~ 4, f 11;
#N canvas 459 35 449 708 box-gain 0;
#X obj 146 364 *~;
#X obj 202 364 *~;
#X msg 220 299 \$1 1;
#X obj 220 324 line~;
#X obj 146 194 inlet~;
#X obj 202 194 inlet~;
#X obj 146 389 outlet~;
#X obj 202 389 outlet~;
#X obj 220 274 r \$0-box-gain;
#X connect 0 0 6 0;
#X connect 1 0 7 0;
#X connect 2 0 3 0;
#X connect 3 0 1 1;
#X connect 3 0 0 1;
#X connect 4 0 0 0;
#X connect 5 0 1 0;
#X connect 8 0 2 0;
#X restore 243 67 pd box-gain;
#X obj 253 264 throw~ \$0-fL;
#X obj 277 288 throw~ \$0-fR;
#X obj 327 338 throw~ \$0-rL;
#X obj 302 314 throw~ \$0-rR;
#N canvas 686 35 677 708 box-pan 0;
#X obj 40 160 inlet~;
#X obj 203 160 inlet~;
#X obj 40 269 SimpleAmbisonics/quady~;
#X obj 203 269 SimpleAmbisonics/quady~;
#X obj 40 431 +~;
#X obj 75 431 +~;
#X obj 110 431 +~;
#X obj 146 431 +~;
#X obj 40 456 outlet~;
#X obj 75 481 outlet~;
#X obj 110 456 outlet~;
#X obj 146 481 outlet~;
#X obj 93 109 +~;
#X obj 274 14 osc~ 0.013;
#X obj 274 39 *~ 0.15;
#X obj 256 109 +~ 0.3;
#X obj 256 134 +~;
#X obj 256 69 phasor~ 0.02;
#X obj 309 154 loadbang;
#X obj 309 204 +~;
#X obj 456 139 osc~ 0.1;
#X obj 456 164 *~ 0.02;
#X obj 379 184 +~;
#X obj 309 229 *~;
#X obj 327 124 line~;
#X msg 146 145 1 5;
#X obj 146 170 line~;
#X obj 379 134 osc~ 0.03;
#X msg 309 179 0.75;
#X obj 379 159 *~ 0.225;
#X obj 146 120 loadbang;
#X obj 327 99 r \$0-box-space;
#N canvas 3 35 1360 708 quads 0;
#X obj 432 238 line~;
#X obj 432 213 r \$0-grano-gain-main;
#X obj 118 159 r~ \$0-grano-fL;
#X obj 182 184 r~ \$0-grano-fR;
#X obj 246 209 r~ \$0-grano-rR;
#X obj 310 233 r~ \$0-grano-rL;
#X obj 118 258 *~;
#X obj 182 258 *~;
#X obj 246 258 *~;
#X obj 310 258 *~;
#X msg 491 273 \$1 1;
#X obj 491 298 line~;
#X obj 491 248 r \$0-box-gain;
#X obj 118 318 *~;
#X obj 182 318 *~;
#X obj 246 318 *~;
#X obj 310 318 *~;
#X obj 118 531 outlet~;
#X obj 182 531 outlet~;
#X obj 246 531 outlet~;
#X obj 310 531 outlet~;
#X obj 118 383 pd-dmtools/3band~;
#N canvas 156 156 450 300 load 0;
#X obj 17 12 loadbang;
#X obj 17 60 outlet;
#X msg 17 36 low 0 \, mid 0 \, hi -12 \, freq low 500 \, freq hi 1500
;
#X connect 0 0 2 0;
#X connect 2 0 1 0;
#X restore 424 384 pd load;
#X obj 434 439 line;
#X msg 434 464 hi \$1;
#X obj 434 414 r \$0-box-hi-gain;
#X obj 246 383 pd-dmtools/3band~;
#X connect 0 0 9 1;
#X connect 0 0 8 1;
#X connect 0 0 7 1;
#X connect 0 0 6 1;
#X connect 1 0 0 0;
#X connect 2 0 6 0;
#X connect 3 0 7 0;
#X connect 4 0 8 0;
#X connect 5 0 9 0;
#X connect 6 0 13 0;
#X connect 7 0 14 0;
#X connect 8 0 15 0;
#X connect 9 0 16 0;
#X connect 10 0 11 0;
#X connect 11 0 16 1;
#X connect 11 0 15 1;
#X connect 11 0 14 1;
#X connect 11 0 13 1;
#X connect 12 0 10 0;
#X connect 13 0 21 0;
#X connect 14 0 21 1;
#X connect 15 0 26 0;
#X connect 16 0 26 1;
#X connect 21 0 17 0;
#X connect 21 1 18 0;
#X connect 22 0 21 2;
#X connect 22 0 26 2;
#X connect 23 0 24 0;
#X connect 24 0 21 2;
#X connect 24 0 26 2;
#X connect 25 0 23 0;
#X connect 26 0 19 0;
#X connect 26 1 20 0;
#X restore 378 409 pd quads;
#X connect 0 0 2 0;
#X connect 1 0 3 0;
#X connect 2 0 4 0;
#X connect 2 1 5 0;
#X connect 2 2 6 0;
#X connect 2 3 7 0;
#X connect 3 0 4 1;
#X connect 3 1 5 1;
#X connect 3 2 6 1;
#X connect 3 3 7 1;
#X connect 4 0 8 0;
#X connect 5 0 9 0;
#X connect 6 0 10 0;
#X connect 7 0 11 0;
#X connect 12 0 2 1;
#X connect 13 0 14 0;
#X connect 14 0 12 1;
#X connect 14 0 16 1;
#X connect 15 0 16 0;
#X connect 16 0 3 1;
#X connect 17 0 12 0;
#X connect 17 0 15 0;
#X connect 18 0 28 0;
#X connect 19 0 23 0;
#X connect 20 0 21 0;
#X connect 21 0 22 1;
#X connect 22 0 19 1;
#X connect 23 0 3 2;
#X connect 23 0 2 2;
#X connect 24 0 23 1;
#X connect 25 0 26 0;
#X connect 26 0 2 2;
#X connect 26 0 3 2;
#X connect 27 0 29 0;
#X connect 28 0 19 0;
#X connect 29 0 22 0;
#X connect 30 0 25 0;
#X connect 31 0 24 0;
#X connect 32 0 8 0;
#X connect 32 1 9 0;
#X connect 32 2 10 0;
#X connect 32 3 11 0;
#X restore 243 235 pd box-pan;
#X f 11;
#N canvas 823 65 267 678 load 0;
#X obj 83 109 loadbang;
#X obj 83 159 outlet;
#X msg 83 134 route0 0 \, route1 1 \, route2 3 \, route3 2 \, gain
1;
#X connect 0 0 2 0;
#X connect 2 0 1 0;
#X restore 916 183 pd load;
#N canvas 686 35 677 708 pullrev-bandsplitnpan 0;
#X obj 31 22 inlet~;
#X obj 87 22 inlet~;
#X obj 31 92 pd-dmtools/3band~;
#X obj 31 225 +~;
#X obj 31 250 *~ 0.5;
#N canvas 914 35 449 708 load 0;
#X obj 65 88 loadbang;
#X obj 65 138 outlet;
#X msg 65 113 low 0 \, mid -100 \, hi -100 \, freq low 250 \, freq
hi 2000;
#X connect 0 0 2 0;
#X connect 2 0 1 0;
#X restore 117 92 pd load;
#X obj 41 280 pd-dmtools/gv~;
#N canvas 914 35 449 708 load 0;
#X obj 31 56 loadbang;
#X msg 31 81 room 30 \, time 100 \, damp 0.419355 \, early 80.6452
\, tail 19.3548;
#X obj 31 121 outlet;
#X connect 0 0 1 0;
#X connect 1 0 2 0;
#X restore 121 280 pd load;
#X obj 210 92 pd-dmtools/3band~;
#N canvas 914 35 449 708 load 0;
#X obj 65 88 loadbang;
#X obj 65 138 outlet;
#X msg 65 113 low -100 \, mid 0 \, hi 0 \, freq low 250 \, freq hi
2000;
#X connect 0 0 2 0;
#X connect 2 0 1 0;
#X restore 296 92 pd load;
#X obj 31 447 SimpleAmbisonics/quady~;
#X obj 136 367 loadbang;
#X obj 136 417 sig~;
#X msg 136 392 1;
#X obj 31 609 +~;
#X obj 66 609 +~;
#X obj 101 609 +~;
#X obj 137 609 +~;
#X obj 210 447 SimpleAmbisonics/quady~;
#X obj 210 225 +~;
#X obj 31 634 outlet~;
#X obj 66 659 outlet~;
#X obj 101 634 outlet~;
#X obj 137 659 outlet~;
#X obj 462 52 r \$0-pullrevon;
#X msg 462 77 bang;
#X obj 462 327 pd-dmtools/linease;
#X obj 495 177 random 1000;
#X obj 495 202 * 0.001;
#X obj 462 102 t b b;
#X obj 529 227 random 2000;
#X obj 529 252 + 500;
#X obj 462 277 pack f f f;
#X obj 462 127 random 1000;
#X obj 462 152 * 0.001;
#X msg 462 352 \$1 1;
#X obj 462 377 line~;
#X msg 462 302 out \, \$1 \$2 \$3;
#X obj 462 407 lop~;
#X obj 595 327 t b f, f 6;
#X msg 595 352 1000;
#X obj 595 377 /, f 6;
#X obj 595 277 loadbang;
#X msg 595 302 10;
#X obj 315 327 pd-dmtools/linease;
#X msg 315 352 \$1 1;
#X obj 315 377 line~;
#X obj 315 407 lop~;
#X msg 315 302 inout \, 0 \$1 \$2;
#X obj 315 277 pack f f;
#X obj 315 252 * 0.001;
#X floatatom 248 290 5 0 0 0 - - -;
#X obj 315 202 random 250;
#X obj 315 227 + 700;
#X connect 0 0 2 0;
#X connect 0 0 8 0;
#X connect 1 0 2 1;
#X connect 1 0 8 1;
#X connect 2 0 3 0;
#X connect 2 1 3 1;
#X connect 3 0 4 0;
#X connect 4 0 6 0;
#X connect 4 0 10 0;
#X connect 5 0 2 2;
#X connect 6 0 10 0;
#X connect 7 0 6 2;
#X connect 8 0 19 0;
#X connect 8 1 19 1;
#X connect 9 0 8 2;
#X connect 10 0 14 0;
#X connect 10 1 15 0;
#X connect 10 2 16 0;
#X connect 10 3 17 0;
#X connect 11 0 13 0;
#X connect 12 0 10 2;
#X connect 13 0 12 0;
#X connect 14 0 20 0;
#X connect 15 0 21 0;
#X connect 16 0 22 0;
#X connect 17 0 23 0;
#X connect 18 0 14 1;
#X connect 18 1 15 1;
#X connect 18 2 16 1;
#X connect 18 3 17 1;
#X connect 19 0 18 0;
#X connect 24 0 25 0;
#X connect 25 0 29 0;
#X connect 26 0 35 0;
#X connect 27 0 28 0;
#X connect 28 0 32 1;
#X connect 29 0 33 0;
#X connect 29 0 52 0;
#X connect 29 1 27 0;
#X connect 29 1 30 0;
#X connect 30 0 31 0;
#X connect 31 0 32 2;
#X connect 31 0 49 1;
#X connect 32 0 37 0;
#X connect 33 0 34 0;
#X connect 34 0 32 0;
#X connect 35 0 36 0;
#X connect 36 0 38 0;
#X connect 37 0 26 0;
#X connect 38 0 18 1;
#X connect 39 0 40 0;
#X connect 39 1 41 1;
#X connect 40 0 41 0;
#X connect 41 0 38 1;
#X connect 41 0 47 1;
#X connect 42 0 43 0;
#X connect 43 0 39 0;
#X connect 44 0 45 0;
#X connect 45 0 46 0;
#X connect 46 0 47 0;
#X connect 47 0 18 2;
#X connect 48 0 44 0;
#X connect 49 0 48 0;
#X connect 50 0 49 0;
#X connect 50 0 51 0;
#X connect 52 0 53 0;
#X connect 53 0 50 0;
#X restore 12 204 pd pullrev-bandsplitnpan;
#X f 15;
#X obj 1194 380 r \$0-end;
#X msg 1194 405 bang;
#X obj 1194 430 delay 1000;
#X obj 1155 300 r \$0-rec-start;
#X obj 1155 325 t b b;
#X obj 1155 350 delay 500;
#X obj 896 352 pd-dmtools/pan~;
#X obj 987 352 pd-dmtools/pan~;
#X obj 906 435 pd-dmtools/pan~;
#X obj 997 435 pd-dmtools/pan~;
#X obj 970 322 sig~ -0.3;
#X obj 1061 322 sig~ 0.3;
#X obj 980 405 sig~ -1;
#X obj 1071 405 sig~ 1;
#X obj 1119 530 writesf~ 2;
#X msg 1145 460 open test-stereo0;
#X msg 1155 480 start;
#X msg 1165 500 stop;
#X obj 701 205 +~;
#X obj 701 230 *~ 0.5;
#X obj 694 347 writesf~ 4;
#X msg 1052 258 open test-quad0;
#X msg 1025 96 open test-pistas0;
#X obj 1025 150 writesf~ 4;
#N canvas 686 35 677 708 poly-gain 0;
#X obj 146 315 *~;
#X obj 202 315 *~;
#X msg 220 250 \$1 1;
#X obj 220 275 line~;
#X obj 146 194 inlet~;
#X obj 202 194 inlet~;
#X obj 146 340 outlet~;
#X obj 202 340 outlet~;
#X obj 220 225 r \$0-poly-gain;
#X connect 0 0 6 0;
#X connect 1 0 7 0;
#X connect 2 0 3 0;
#X connect 3 0 1 1;
#X connect 3 0 0 1;
#X connect 4 0 0 0;
#X connect 5 0 1 0;
#X connect 8 0 2 0;
#X restore 475 37 pd poly-gain;
#N canvas 3 35 1360 708 box-loop-gain 0;
#X obj 146 52 inlet~;
#X obj 164 77 r \$0-box-loop-gain-main;
#X obj 146 127 *~;
#X obj 164 102 line~;
#X obj 146 152 outlet~;
#X obj 64 388 r \$0-a;
#X obj 261 438 delay 61000;
#X obj 347 438 delay 66500;
#X msg 261 463 0 500;
#X msg 347 463 1 500;
#X obj 866 438 delay 124500;
#X obj 344 188 / 60000;
#X obj 404 133 % 60000;
#X obj 344 108 t f f, f 9;
#X obj 344 163 -;
#X obj 404 158 * 0.001;
#X floatatom 344 213 5 0 0 0 - - -;
#X floatatom 404 213 5 0 0 0 - - -;
#X obj 959 438 delay 129000;
#X msg 866 463 0 500;
#X msg 959 463 1 500;
#X msg 2343 463 0 500;
#X obj 64 513 s \$0-box-loop-gain-main;
#X msg 9 463 1 5;
#X obj 64 438 delay 45500;
#X obj 150 438 delay 47000;
#X msg 64 463 0 500;
#X msg 150 463 1 500;
#X obj 1288 438 delay 164500;
#X msg 1288 463 0 500;
#X msg 1381 463 1 500;
#X obj 1381 438 delay 170500;
#X obj 2343 438 delay 231500;
#X msg 655 463 0 500;
#X msg 748 463 1 500;
#X obj 655 438 delay 108000;
#X obj 748 438 delay 109000;
#X msg 1077 463 0 500;
#X msg 1170 463 1 500;
#X obj 1077 438 delay 159000;
#X obj 1170 438 delay 160000;
#X msg 1499 463 0 500;
#X msg 1592 463 1 500;
#X obj 1499 438 delay 174000;
#X obj 1592 438 delay 175500;
#X msg 1710 463 0 500;
#X msg 1803 463 1 500;
#X obj 1710 438 delay 190000;
#X obj 1803 438 delay 192500;
#X msg 1921 463 0 500;
#X msg 2014 463 1 500;
#X obj 1921 438 delay 198500;
#X obj 2014 438 delay 201000;
#X msg 2132 463 0 500;
#X msg 2225 463 1 500;
#X obj 2132 438 delay 221500;
#X obj 2225 438 delay 224500;
#X msg 458 463 0 500;
#X msg 544 463 1 500;
#X obj 458 438 delay 85000;
#X obj 544 438 delay 86000;
#X msg 344 83 236000;
#X connect 0 0 2 0;
#X connect 1 0 3 0;
#X connect 2 0 4 0;
#X connect 3 0 2 1;
#X connect 5 0 6 0;
#X connect 5 0 7 0;
#X connect 5 0 10 0;
#X connect 5 0 18 0;
#X connect 5 0 23 0;
#X connect 5 0 24 0;
#X connect 5 0 28 0;
#X connect 5 0 31 0;
#X connect 5 0 32 0;
#X connect 5 0 35 0;
#X connect 5 0 36 0;
#X connect 5 0 39 0;
#X connect 5 0 40 0;
#X connect 5 0 43 0;
#X connect 5 0 56 0;
#X connect 5 0 55 0;
#X connect 5 0 52 0;
#X connect 5 0 51 0;
#X connect 5 0 48 0;
#X connect 5 0 47 0;
#X connect 5 0 44 0;
#X connect 5 0 59 0;
#X connect 5 0 60 0;
#X connect 6 0 8 0;
#X connect 7 0 9 0;
#X connect 8 0 22 0;
#X connect 9 0 22 0;
#X connect 10 0 19 0;
#X connect 11 0 16 0;
#X connect 12 0 14 1;
#X connect 12 0 15 0;
#X connect 13 0 14 0;
#X connect 13 1 12 0;
#X connect 14 0 11 0;
#X connect 15 0 17 0;
#X connect 18 0 20 0;
#X connect 19 0 22 0;
#X connect 20 0 22 0;
#X connect 21 0 22 0;
#X connect 23 0 22 0;
#X connect 24 0 26 0;
#X connect 25 0 27 0;
#X connect 26 0 22 0;
#X connect 27 0 22 0;
#X connect 28 0 29 0;
#X connect 29 0 22 0;
#X connect 30 0 22 0;
#X connect 31 0 30 0;
#X connect 32 0 21 0;
#X connect 33 0 22 0;
#X connect 34 0 22 0;
#X connect 35 0 33 0;
#X connect 36 0 34 0;
#X connect 37 0 22 0;
#X connect 38 0 22 0;
#X connect 39 0 37 0;
#X connect 40 0 38 0;
#X connect 41 0 22 0;
#X connect 42 0 22 0;
#X connect 43 0 41 0;
#X connect 44 0 42 0;
#X connect 45 0 22 0;
#X connect 46 0 22 0;
#X connect 47 0 45 0;
#X connect 48 0 46 0;
#X connect 49 0 22 0;
#X connect 50 0 22 0;
#X connect 51 0 49 0;
#X connect 52 0 50 0;
#X connect 53 0 22 0;
#X connect 54 0 22 0;
#X connect 55 0 53 0;
#X connect 56 0 54 0;
#X connect 57 0 22 0;
#X connect 58 0 22 0;
#X connect 59 0 57 0;
#X connect 60 0 58 0;
#X connect 61 0 13 0;
#X restore 243 37 pd box-loop-gain;
#N canvas 686 35 677 708 grano-gain 0;
#X obj 146 52 inlet~;
#X obj 146 127 *~;
#X obj 164 102 line~;
#X obj 146 152 outlet~;
#X obj 39 385 r \$0-a;
#X obj 344 188 / 60000;
#X obj 404 133 % 60000;
#X obj 344 108 t f f, f 9;
#X obj 344 163 -;
#X obj 404 158 * 0.001;
#X floatatom 344 213 5 0 0 0 - - -;
#X floatatom 404 213 5 0 0 0 - - -;
#X obj 164 77 r \$0-grano-gain-main;
#X obj 124 510 s \$0-grano-gain-main;
#X msg 69 460 1 5;
#X obj 39 540 delay 262500;
#X obj 39 615 s \$0-grano-dir;
#X msg 39 565 0.8;
#X obj 905 435 delay 91500;
#X msg 905 460 0 500;
#X msg 1102 460 0 500;
#X msg 1188 460 1 500;
#X msg 991 460 1 500;
#X obj 991 435 delay 93500;
#X obj 1102 435 delay 95500;
#X obj 1188 435 delay 97500;
#X obj 124 435 delay 7500;
#X msg 124 460 0 500;
#X msg 203 460 1 500;
#X obj 203 435 delay 10000;
#X msg 314 460 0 500;
#X msg 400 460 1 500;
#X obj 314 435 delay 18000;
#X obj 400 435 delay 22000;
#X msg 511 460 0 500;
#X msg 597 460 1 500;
#X obj 511 435 delay 31500;
#X obj 597 435 delay 35000;
#X msg 708 460 0 500;
#X msg 794 460 1 500;
#X obj 708 435 delay 44000;
#X obj 794 435 delay 45500;
#X msg 1299 460 0 500;
#X msg 1392 460 1 500;
#X obj 1299 435 delay 107500;
#X obj 1392 435 delay 108500;
#X msg 1510 460 0 500;
#X msg 1603 460 1 500;
#X obj 1510 435 delay 182500;
#X obj 1603 435 delay 184500;
#X msg 1721 460 0 500;
#X msg 1814 460 1 500;
#X obj 1721 435 delay 209000;
#X obj 1814 435 delay 211500;
#X msg 2143 460 0 500;
#X msg 2236 460 1 500;
#X obj 2143 435 delay 242000;
#X obj 2236 435 delay 246500;
#X msg 2354 460 0 500;
#X msg 2447 460 1 500;
#X obj 2354 435 delay 281000;
#X obj 2447 435 delay 286500;
#X msg 1932 460 0 500;
#X msg 2025 460 1 500;
#X obj 1932 435 delay 236000;
#X obj 2025 435 delay 238000;
#X msg 344 83 238000;
#X connect 0 0 1 0;
#X connect 1 0 3 0;
#X connect 2 0 1 1;
#X connect 4 0 14 0;
#X connect 4 0 15 0;
#X connect 4 0 18 0;
#X connect 4 0 23 0;
#X connect 4 0 24 0;
#X connect 4 0 25 0;
#X connect 4 0 26 0;
#X connect 4 0 29 0;
#X connect 4 0 32 0;
#X connect 4 0 33 0;
#X connect 4 0 36 0;
#X connect 4 0 37 0;
#X connect 4 0 40 0;
#X connect 4 0 41 0;
#X connect 4 0 44 0;
#X connect 4 0 61 0;
#X connect 4 0 60 0;
#X connect 4 0 57 0;
#X connect 4 0 56 0;
#X connect 4 0 53 0;
#X connect 4 0 52 0;
#X connect 4 0 49 0;
#X connect 4 0 48 0;
#X connect 4 0 45 0;
#X connect 4 0 64 0;
#X connect 4 0 65 0;
#X connect 5 0 10 0;
#X connect 6 0 8 1;
#X connect 6 0 9 0;
#X connect 7 0 8 0;
#X connect 7 1 6 0;
#X connect 8 0 5 0;
#X connect 9 0 11 0;
#X connect 12 0 2 0;
#X connect 14 0 13 0;
#X connect 15 0 17 0;
#X connect 17 0 16 0;
#X connect 18 0 19 0;
#X connect 19 0 13 0;
#X connect 20 0 13 0;
#X connect 21 0 13 0;
#X connect 22 0 13 0;
#X connect 23 0 22 0;
#X connect 24 0 20 0;
#X connect 25 0 21 0;
#X connect 26 0 27 0;
#X connect 27 0 13 0;
#X connect 28 0 13 0;
#X connect 29 0 28 0;
#X connect 30 0 13 0;
#X connect 31 0 13 0;
#X connect 32 0 30 0;
#X connect 33 0 31 0;
#X connect 34 0 13 0;
#X connect 35 0 13 0;
#X connect 36 0 34 0;
#X connect 37 0 35 0;
#X connect 38 0 13 0;
#X connect 39 0 13 0;
#X connect 40 0 38 0;
#X connect 41 0 39 0;
#X connect 42 0 13 0;
#X connect 43 0 13 0;
#X connect 44 0 42 0;
#X connect 45 0 43 0;
#X connect 46 0 13 0;
#X connect 47 0 13 0;
#X connect 48 0 46 0;
#X connect 49 0 47 0;
#X connect 50 0 13 0;
#X connect 51 0 13 0;
#X connect 52 0 50 0;
#X connect 53 0 51 0;
#X connect 54 0 13 0;
#X connect 55 0 13 0;
#X connect 56 0 54 0;
#X connect 57 0 55 0;
#X connect 58 0 13 0;
#X connect 59 0 13 0;
#X connect 60 0 58 0;
#X connect 61 0 59 0;
#X connect 62 0 13 0;
#X connect 63 0 13 0;
#X connect 64 0 62 0;
#X connect 65 0 63 0;
#X connect 66 0 7 0;
#X restore 364 37 pd grano-gain;
#X obj 923 678 *~;
#X obj 941 537 vsl 15 128 0 1 0 1 empty empty empty 0 -9 0 10 -262144
-1 -1 4800 1;
#X obj 971 537 vsl 15 128 0 1 0 1 empty empty empty 0 -9 0 10 -262144
-1 -1 8800 1;
#X obj 1001 537 vsl 15 128 0 1 0 1 empty empty empty 0 -9 0 10 -262144
-1 -1 3600 1;
#X obj 1031 537 vsl 15 128 0 1 0 1 empty empty empty 0 -9 0 10 -262144
-1 -1 12700 1;
#X obj 953 678 *~;
#X obj 983 678 *~;
#X obj 1013 678 *~;
#X obj 923 733 *~;
#X obj 941 708 tgl 15 1 empty empty empty 17 7 0 10 -262144 -1 -1 0
1;
#X obj 953 733 *~;
#X obj 971 708 tgl 15 1 empty empty empty 17 7 0 10 -262144 -1 -1 0
1;
#X obj 983 733 *~;
#X obj 1001 708 tgl 15 1 empty empty empty 17 7 0 10 -262144 -1 -1
1 1;
#X obj 1013 733 *~;
#X obj 1031 708 tgl 15 1 empty empty empty 17 7 0 10 -262144 -1 -1
1 1;
#X obj 1093 642 vsl 15 128 0 2 0 1 empty empty empty 0 -9 0 10 -262144
-1 -1 12700 1;
#X obj 923 773 *~;
#X obj 953 773 *~;
#X obj 983 773 *~;
#X obj 1013 773 *~;
#X obj 923 828 dac~ 1 2, f 13;
#X obj 1180 599 print stop;
#X connect 0 0 64 0;
#X connect 0 0 90 1;
#X connect 0 1 64 1;
#X connect 0 1 90 2;
#X connect 1 0 0 2;
#X connect 2 0 38 0;
#X connect 2 1 38 1;
#X connect 3 0 91 0;
#X connect 4 0 91 1;
#X connect 5 0 2 2;
#X connect 6 0 7 0;
#X connect 7 0 0 2;
#X connect 8 0 66 0;
#X connect 8 0 90 0;
#X connect 9 0 66 1;
#X connect 9 0 90 0;
#X connect 10 0 11 0;
#X connect 11 0 9 1;
#X connect 11 0 8 1;
#X connect 12 0 13 0;
#X connect 13 0 20 0;
#X connect 13 1 15 0;
#X connect 14 0 43 0;
#X connect 14 0 47 0;
#X connect 14 0 58 0;
#X connect 15 0 43 0;
#X connect 15 0 47 0;
#X connect 15 0 58 0;
#X connect 16 0 24 0;
#X connect 16 1 26 0;
#X connect 17 0 43 0;
#X connect 18 0 58 0;
#X connect 19 0 47 0;
#X connect 20 0 23 0;
#X connect 20 1 27 0;
#X connect 21 0 22 0;
#X connect 22 0 26 1;
#X connect 22 1 25 0;
#X connect 23 0 16 0;
#X connect 24 0 14 0;
#X connect 25 0 27 0;
#X connect 26 0 17 0;
#X connect 26 0 18 0;
#X connect 26 0 19 0;
#X connect 27 0 21 0;
#X connect 28 0 29 0;
#X connect 29 0 2 2;
#X connect 30 0 28 0;
#X connect 31 0 6 0;
#X connect 32 0 10 0;
#X connect 33 0 34 0;
#X connect 34 0 35 0;
#X connect 35 0 2 2;
#X connect 36 0 92 0;
#X connect 37 0 93 0;
#X connect 38 0 48 0;
#X connect 38 0 85 0;
#X connect 38 1 48 1;
#X connect 38 1 85 1;
#X connect 44 0 46 0;
#X connect 45 0 46 1;
#X connect 46 0 8 0;
#X connect 46 1 9 0;
#X connect 48 0 39 0;
#X connect 48 0 43 0;
#X connect 48 1 40 0;
#X connect 48 1 43 1;
#X connect 48 2 42 0;
#X connect 48 2 43 2;
#X connect 48 3 41 0;
#X connect 48 3 43 3;
#X connect 53 0 57 0;
#X connect 54 0 57 1;
#X connect 55 0 57 2;
#X connect 56 0 57 3;
#X connect 57 0 73 0;
#X connect 57 0 87 0;
#X connect 57 0 94 0;
#X connect 57 1 74 0;
#X connect 57 1 87 1;
#X connect 57 1 99 0;
#X connect 57 2 75 0;
#X connect 57 2 87 2;
#X connect 57 2 100 0;
#X connect 57 3 76 0;
#X connect 57 3 87 3;
#X connect 57 3 101 0;
#X connect 59 0 0 0;
#X connect 59 1 0 1;
#X connect 64 0 60 0;
#X connect 64 0 58 0;
#X connect 64 1 61 0;
#X connect 64 1 58 1;
#X connect 64 2 63 0;
#X connect 64 2 58 2;
#X connect 64 3 62 0;
#X connect 64 3 58 3;
#X connect 65 0 57 4;
#X connect 66 0 47 0;
#X connect 66 0 49 0;
#X connect 66 1 50 0;
#X connect 66 1 47 1;
#X connect 66 2 52 0;
#X connect 66 2 47 2;
#X connect 66 3 51 0;
#X connect 66 3 47 3;
#X connect 67 0 68 0;
#X connect 68 0 69 0;
#X connect 69 0 84 0;
#X connect 69 0 116 0;
#X connect 70 0 71 0;
#X connect 71 0 72 0;
#X connect 71 1 82 0;
#X connect 71 1 88 0;
#X connect 71 1 89 0;
#X connect 72 0 83 0;
#X connect 73 0 81 0;
#X connect 73 0 115 0;
#X connect 73 1 81 1;
#X connect 73 1 115 1;
#X connect 74 0 81 0;
#X connect 74 0 115 0;
#X connect 74 1 81 1;
#X connect 74 1 115 1;
#X connect 75 0 81 0;
#X connect 75 0 115 0;
#X connect 76 1 81 1;
#X connect 76 1 115 1;
#X connect 77 0 73 1;
#X connect 78 0 74 1;
#X connect 79 0 75 1;
#X connect 80 0 76 1;
#X connect 82 0 81 0;
#X connect 83 0 81 0;
#X connect 83 0 87 0;
#X connect 83 0 90 0;
#X connect 84 0 81 0;
#X connect 84 0 87 0;
#X connect 84 0 90 0;
#X connect 85 0 86 0;
#X connect 86 0 90 3;
#X connect 88 0 87 0;
#X connect 91 0 2 0;
#X connect 91 1 2 1;
#X connect 92 0 59 0;
#X connect 93 0 59 1;
#X connect 94 0 102 0;
#X connect 95 0 94 1;
#X connect 96 0 99 1;
#X connect 97 0 100 1;
#X connect 98 0 101 1;
#X connect 99 0 104 0;
#X connect 100 0 106 0;
#X connect 101 0 108 0;
#X connect 102 0 111 0;
#X connect 103 0 102 1;
#X connect 104 0 112 0;
#X connect 105 0 104 1;
#X connect 106 0 113 0;
#X connect 107 0 106 1;
#X connect 108 0 114 0;
#X connect 109 0 108 1;
#X connect 110 0 114 1;
#X connect 110 0 113 1;
#X connect 110 0 112 1;
#X connect 110 0 111 1;
#X connect 111 0 115 0;
#X connect 112 0 115 1;
#X restore 12 41 pd mix;
#N canvas 914 35 449 708 btp 0;
#X obj 1091 638 table \$0-box;
#X obj 1074 533 loadbang;
#X obj 1074 558 f \$0;
#X obj 1074 608 soundfiler;
#X obj 1056 638 f;
#X obj 159 43 btp-granola/granola~;
#X obj 12 358 tabplay~ \$0-box;
#X obj 383 459 pd-pullme/pullme~;
#X obj 605 86 metro 1000;
#X obj 573 216 metro;
#X obj 573 56 t f f;
#X obj 605 116 random 2;
#X obj 605 141 sel 0;
#X obj 573 266 sel 0;
#X obj 573 296 t b b;
#X msg 605 386 res \$1;
#N canvas 130 130 450 300 load 0;
#X obj 37 39 loadbang;
#X obj 37 115 outlet;
#X msg 37 63 res 4 \, lerp gain 999 \, lerp pitch 20 \, lerp delay
0 \, delay 0 \, transp 0 \, load gain symbol \, load delay symbol;
#X connect 0 0 2 0;
#X connect 2 0 1 0;
#X restore 580 459 pd load;
#X obj 597 593 pd-adsr/adsr~;
#X obj 383 622 *~, f 31;
#N canvas 686 35 677 708 pullme-adsr 0;
#X obj 31 172 outlet;
#X obj 31 18 inlet;
#N canvas 914 35 449 708 pullme-env1 0;
#X obj 37 27 inlet;
#X obj 251 112 + 500;
#X msg 251 234 att \$1;
#X obj 251 88 random 1500;
#X msg 144 234 dec \$1;
#X obj 37 90 random 2;
#X obj 37 114 sel 0 1;
#X obj 37 186 * 0.001;
#X obj 37 138 random 600;
#X obj 37 162 + 150;
#X msg 37 234 sus \$1;
#X msg 60 210 0;
#X obj 144 90 random 2;
#X obj 144 114 sel 0 1;
#X obj 144 162 + 400;
#X obj 144 138 random 1200;
#X obj 167 210 + 100;
#X obj 167 186 random 400;
#X obj 37 61 t b b b, f 31;
#X obj 144 283 outlet;
#X connect 0 0 18 0;
#X connect 1 0 2 0;
#X connect 2 0 19 0;
#X connect 3 0 1 0;
#X connect 4 0 19 0;
#X connect 5 0 6 0;
#X connect 6 0 8 0;
#X connect 6 1 11 0;
#X connect 7 0 10 0;
#X connect 8 0 9 0;
#X connect 9 0 7 0;
#X connect 10 0 19 0;
#X connect 11 0 10 0;
#X connect 12 0 13 0;
#X connect 13 0 15 0;
#X connect 13 1 17 0;
#X connect 14 0 4 0;
#X connect 15 0 14 0;
#X connect 16 0 4 0;
#X connect 17 0 16 0;
#X connect 18 0 5 0;
#X connect 18 1 12 0;
#X connect 18 2 3 0;
#X restore 31 119 pd pullme-env1;
#N canvas 914 35 449 708 pullme-env2 0;
#X obj 37 27 inlet;
#X msg 251 234 att \$1;
#X msg 144 234 dec \$1;
#X msg 37 234 sus \$1;
#X msg 37 90 0;
#X obj 144 90 random 2;
#X obj 144 114 sel 0 1;
#X obj 37 61 t b b b, f 31;
#X obj 144 283 outlet;
#X obj 251 88 random 2;
#X obj 251 112 sel 0 1, f 8;
#X msg 251 136 0;
#X msg 277 136 10;
#X obj 144 162 + 1000;
#X obj 144 138 random 3000;
#X obj 167 186 random 200;
#X obj 167 210 + 50;
#X connect 0 0 7 0;
#X connect 1 0 8 0;
#X connect 2 0 8 0;
#X connect 3 0 8 0;
#X connect 4 0 3 0;
#X connect 5 0 6 0;
#X connect 6 0 14 0;
#X connect 6 1 15 0;
#X connect 7 0 4 0;
#X connect 7 1 5 0;
#X connect 7 2 9 0;
#X connect 9 0 10 0;
#X connect 10 0 11 0;
#X connect 10 1 12 0;
#X connect 11 0 1 0;
#X connect 12 0 1 0;
#X connect 13 0 2 0;
#X connect 14 0 13 0;
#X connect 15 0 16 0;
#X connect 16 0 2 0;
#X restore 54 143 pd pullme-env2;
#X obj 31 90 sel 0 1;
#X obj 31 42 random 2;
#X obj 31 66 expr if($f2==0 \, $f1 \, 1);
#X obj 189 46 tgl 15 0 empty empty empty 17 7 0 10 -262144 -1 -1 0
1;
#X obj 189 17 r \$0-pullmeNrev-short-att;
#X connect 1 0 5 0;
#X connect 2 0 0 0;
#X connect 3 0 0 0;
#X connect 4 0 2 0;
#X connect 4 1 3 0;
#X connect 5 0 6 0;
#X connect 6 0 4 0;
#X connect 7 0 6 1;
#X connect 8 0 7 0;
#X restore 685 521 pd pullme-adsr;
#X msg 597 564 1;
#X msg 661 386 random gain;
#X obj 605 336 random 5;
#X obj 605 361 + 3;
#X obj 605 166 random 1000;
#X obj 573 241 random 3;
#X msg 296 442 0;
#N canvas 686 35 677 708 pullme-rev 0;
#X obj 87 32 inlet~;
#X obj 252 32 inlet;
#X obj 87 320 outlet~;
#X obj 87 61 dym/rev2gui~;
#X obj 105 204 osc~;
#X obj 252 165 * 0.01;
#X obj 87 233 *~;
#X obj 252 141 random 400;
#X obj 308 32 inlet;
#X obj 308 61 route float bang;
#N canvas 156 156 450 300 pullme-rev-adsr 0;
#X obj 31 172 outlet;
#X obj 31 18 inlet;
#X obj 31 90 sel 0 1;
#X obj 31 42 random 2;
#X obj 31 66 expr if($f2==0 \, $f1 \, 1);
#X obj 189 46 tgl 15 0 empty empty empty 17 7 0 10 -262144 -1 -1 0
1;
#X obj 189 22 r \$0-pullmeNrev-short-att;
#N canvas 582 163 1366 685 rev-env1 0;
#X obj 37 27 inlet;
#X obj 251 112 + 500;
#X msg 251 234 att \$1;
#X obj 251 88 random 1500;
#X msg 144 234 dec \$1;
#X obj 37 90 random 2;
#X obj 37 114 sel 0 1;
#X obj 37 186 * 0.001;
#X obj 37 138 random 600;
#X obj 37 162 + 150;
#X msg 37 234 sus \$1;
#X msg 60 210 0;
#X obj 144 90 random 2;
#X obj 144 114 sel 0 1;
#X obj 144 162 + 400;
#X obj 144 138 random 1200;
#X obj 167 210 + 100;
#X obj 167 186 random 400;
#X obj 37 61 t b b b, f 31;
#X obj 144 283 outlet;
#X connect 0 0 18 0;
#X connect 1 0 2 0;
#X connect 2 0 19 0;
#X connect 3 0 1 0;
#X connect 4 0 19 0;
#X connect 5 0 6 0;
#X connect 6 0 8 0;
#X connect 6 1 11 0;
#X connect 7 0 10 0;
#X connect 8 0 9 0;
#X connect 9 0 7 0;
#X connect 10 0 19 0;
#X connect 11 0 10 0;
#X connect 12 0 13 0;
#X connect 13 0 15 0;
#X connect 13 1 17 0;
#X connect 14 0 4 0;
#X connect 15 0 14 0;
#X connect 16 0 4 0;
#X connect 17 0 16 0;
#X connect 18 0 5 0;
#X connect 18 1 12 0;
#X connect 18 2 3 0;
#X restore 31 119 pd rev-env1;
#N canvas -132 158 1366 685 rev-env2 0;
#X obj 37 27 inlet;
#X msg 251 234 att \$1;
#X msg 144 234 dec \$1;
#X msg 37 234 sus \$1;
#X msg 37 90 0;
#X obj 144 90 random 2;
#X obj 144 114 sel 0 1;
#X obj 37 61 t b b b, f 31;
#X obj 144 283 outlet;
#X obj 251 88 random 2;
#X obj 251 112 sel 0 1, f 8;
#X msg 251 136 0;
#X msg 277 136 10;
#X obj 144 162 + 1000;
#X obj 144 138 random 3000;
#X obj 167 186 random 200;
#X obj 167 210 + 50;
#X connect 0 0 7 0;
#X connect 1 0 8 0;
#X connect 2 0 8 0;
#X connect 3 0 8 0;
#X connect 4 0 3 0;
#X connect 5 0 6 0;
#X connect 6 0 14 0;
#X connect 6 1 15 0;
#X connect 7 0 4 0;
#X connect 7 1 5 0;
#X connect 7 2 9 0;
#X connect 9 0 10 0;
#X connect 10 0 11 0;
#X connect 10 1 12 0;
#X connect 11 0 1 0;
#X connect 12 0 1 0;
#X connect 13 0 2 0;
#X connect 14 0 13 0;
#X connect 15 0 16 0;
#X connect 16 0 2 0;
#X restore 54 143 pd rev-env2;
#X connect 1 0 3 0;
#X connect 2 0 7 0;
#X connect 2 1 8 0;
#X connect 3 0 4 0;
#X connect 4 0 2 0;
#X connect 5 0 4 1;
#X connect 6 0 5 0;
#X connect 7 0 0 0;
#X connect 8 0 0 0;
#X restore 193 238 pd pullme-rev-adsr;
#X obj 87 291 *~;
#X obj 105 262 pd-adsr/adsr~;
#N canvas 26 26 450 300 load 0;
#X obj 51 46 loadbang;
#X msg 51 70 level 7.42857 \, feedback 14.2857 \, freq 983.978 \, damp
82.8571;
#X obj 51 94 outlet;
#X connect 0 0 1 0;
#X connect 1 0 2 0;
#X restore 245 61 pd load;
#X connect 0 0 3 0;
#X connect 1 0 7 0;
#X connect 3 0 6 0;
#X connect 4 0 6 1;
#X connect 5 0 4 0;
#X connect 6 0 11 0;
#X connect 7 0 5 0;
#X connect 8 0 9 0;
#X connect 9 0 12 0;
#X connect 9 1 10 0;
#X connect 10 0 12 1;
#X connect 11 0 2 0;
#X connect 12 0 11 1;
#X connect 13 0 3 1;
#X restore 208 571 pd pullme-rev;
#X obj 696 171 sel 0;
#X obj 696 195 t b b, f 6;
#X obj 787 219 random 3000;
#X obj 731 267 delay;
#X obj 696 147 random 5;
#X msg 696 315 window shape \$1;
#X msg 731 291 1;
#X obj 696 219 random 2;
#X obj 696 243 + 3;
#X obj 787 243 + 1000;
#X msg 661 493 transp \$1;
#X msg 721 463 0;
#X obj 661 438 sel 0 1, f 9;
#X obj 661 413 random 7;
#X msg 691 463 -12;
#X msg 661 463 12;
#N canvas 914 35 449 708 load 0;
#X obj 62 10 loadbang;
#X obj 62 86 outlet;
#X msg 62 34 order 3 \, teeth 64 \, lerp 5 \, sharp 2 \, pm amount
0 \, pm freq 0 \, adsr att 6 \, adsr dec 0 \, adsr sus 50 \, adsr rel
10 \, poly 0 \, legato 0 \, bendMode 0 \, bendRange 2 \, out 0;
#X connect 0 0 2 0;
#X connect 2 0 1 0;
#X restore 1183 120 pd load;
#X obj 966 332 hip~ 10;
#X obj 1075 332 hip~ 10;
#X obj 966 120 pd-polywave/polywave~;
#X obj 966 362 s~ \$0-polyL;
#X obj 1075 362 s~ \$0-polyR;
#N canvas 686 35 677 708 poly-seq 0;
#N canvas 26 266 1366 685 metro-modulation 0;
#X obj 305 127 expr 60000/$f1;
#X obj 214 180 +, f 18;
#X obj 305 151 t b f;
#X obj 214 108 *;
#X obj 214 79 - 0.5;
#X obj 214 209 outlet;
#X obj 232 26 r \$0-impulse-drift;
#X obj 214 55 r \$0-impulse-metro-mod;
#X obj 305 79 loadbang;
#X msg 305 103 127;
#X connect 0 0 2 0;
#X connect 1 0 5 0;
#X connect 2 0 1 0;
#X connect 2 1 1 1;
#X connect 3 0 1 0;
#X connect 4 0 3 0;
#X connect 6 0 3 1;
#X connect 7 0 4 0;
#X connect 8 0 9 0;
#X connect 9 0 0 0;
#X restore 44 66 pd metro-modulation;
#X obj 12 91 metro;
#N canvas 253 210 450 300 load 0;
#X obj 15 16 loadbang;
#X obj 15 78 outlet;
#X msg 15 40 scale 4 \, transp 0 \, offset 48 \, length 24 \, height
16 \, random;
#X connect 0 0 2 0;
#X connect 2 0 1 0;
#X restore 191 192 pd load;
#N canvas 914 35 449 708 random-seq 0;
#X obj 80 35 loadbang;
#X obj 80 59 tgl 15 0 empty empty empty 17 7 0 10 -262144 -1 -1 1 1
;
#X obj 80 131 sel 0;
#X obj 80 155 bng 15 250 50 0 empty empty empty 17 7 0 10 -262144 -1
-1;
#X msg 80 175 random;
#X obj 80 199 outlet;
#X obj 80 107 random 3;
#X obj 80 83 metro 5000;
#X connect 0 0 1 0;
#X connect 1 0 7 0;
#X connect 2 0 3 0;
#X connect 3 0 4 0;
#X connect 4 0 5 0;
#X connect 6 0 2 0;
#X connect 7 0 6 0;
#X restore 194 142 pd random-seq;
#X obj 51 423 random 3;
#X obj 51 448 sel 0;
#X obj 12 398 t f b, f 6;
#X msg 51 473 0;
#X msg 83 473 1;
#X obj 12 498 spigot;
#X obj 184 92 r \$0-impulse-seq-random;
#X msg 184 117 random;
#N canvas 914 35 449 708 offset 0;
#X obj 35 13 r \$0-impulse-metro-mod;
#X obj 35 38 expr 1-$f1;
#X obj 35 88 + 8;
#X obj 70 93 r \$0-impulse-offset-mode;
#X msg 35 168 offset \$1;
#X obj 35 113 *;
#X obj 35 138 +;
#X obj 35 63 * 15;
#X obj 35 193 outlet;
#X obj 70 118 r \$0-poly-offset;
#X connect 0 0 1 0;
#X connect 1 0 7 0;
#X connect 2 0 5 0;
#X connect 3 0 5 1;
#X connect 4 0 8 0;
#X connect 5 0 6 0;
#X connect 6 0 4 0;
#X connect 7 0 2 0;
#X connect 9 0 6 1;
#X restore 204 167 pd offset;
#X obj 299 122 r \$0-impulse-seq-transp;
#X obj 299 147 expr round($f1);
#X msg 299 172 transp \$1;
#X obj 12 583 makenote;
#X obj 65 533 loadbang;
#X obj 12 608 pack;
#X msg 65 558 1000;
#X obj 12 192 dym/seq1;
#X obj 12 116 f;
#X obj 61 116 + 1;
#X obj 12 141 t f f;
#X obj 12 166 % 24;
#X obj 12 633 outlet;
#X obj 65 633 s \$0-poly-note;
#X obj 580 156 s \$0-impulse-seq-transp;
#X obj 580 55 osc~ 0.2;
#X obj 580 132 int;
#X obj 531 55 metro;
#X obj 580 84 snapshot~;
#X obj 580 108 * 5;
#X obj 199 340 delay 25000;
#X obj 199 390 line;
#X msg 199 365 70 \, 0 1250;
#X obj 229 470 metro, f 11;
#X obj 229 545 t b f;
#X obj 229 570 tgl 15 0 empty empty empty 17 7 0 10 -262144 -1 -1 0
1;
#X obj 229 590 * 70;
#X obj 229 445 delay 3000;
#X obj 229 495 random 450;
#X obj 229 520 + 150;
#X obj 12 12 r \$0-poly-on;
#X msg 12 36 1;
#X obj 199 285 r \$0-poly-offset-random;
#X obj 199 310 sel 1, f 16;
#X obj 199 415 s \$0-poly-offset;
#X obj 333 328 loadbang;
#X obj 333 353 f \$0;
#X msg 333 378 read -resize juancitoronroneosplit.wav \$1-ronroneo
;
#X obj 410 489 table \$0-ronroneo;
#X obj 333 403 soundfiler;
#X obj 356 534 r \$0-a;
#X msg 356 559 bang;
#X obj 356 584 tabplay~ \$0-ronroneo;
#X obj 356 634 *~;
#X obj 545 262 r \$0-poly-offset;
#X obj 545 287 sel 0 70, f 9;
#X obj 545 337 line~;
#X msg 545 312 1 5;
#X msg 575 312 0 5;
#X obj 356 659 outlet~;
#X obj 134 560 random 14;
#X obj 134 585 +;
#X msg 152 522 36;
#X msg 127 522 18;
#X obj 356 609 *~ 0.45;
#X connect 0 0 1 1;
#X connect 1 0 21 0;
#X connect 2 0 20 1;
#X connect 3 0 20 1;
#X connect 4 0 5 0;
#X connect 5 0 7 0;
#X connect 5 1 8 0;
#X connect 6 0 9 0;
#X connect 6 1 4 0;
#X connect 6 1 63 0;
#X connect 7 0 9 1;
#X connect 8 0 9 1;
#X connect 9 0 16 0;
#X connect 10 0 11 0;
#X connect 11 0 20 1;
#X connect 12 0 20 1;
#X connect 13 0 14 0;
#X connect 14 0 15 0;
#X connect 15 0 20 1;
#X connect 16 0 18 0;
#X connect 16 1 18 1;
#X connect 16 1 26 0;
#X connect 17 0 19 0;
#X connect 18 0 25 0;
#X connect 19 0 16 2;
#X connect 20 0 6 0;
#X connect 21 0 23 0;
#X connect 22 0 21 1;
#X connect 23 0 24 0;
#X connect 23 1 22 0;
#X connect 24 0 20 0;
#X connect 28 0 31 0;
#X connect 29 0 27 0;
#X connect 30 0 31 0;
#X connect 31 0 32 0;
#X connect 32 0 29 0;
#X connect 33 0 35 0;
#X connect 33 0 40 0;
#X connect 34 0 47 0;
#X connect 35 0 34 0;
#X connect 36 0 41 0;
#X connect 37 0 38 0;
#X connect 37 1 36 1;
#X connect 38 0 39 0;
#X connect 39 0 47 0;
#X connect 40 0 36 0;
#X connect 41 0 42 0;
#X connect 42 0 37 0;
#X connect 43 0 44 0;
#X connect 44 0 30 0;
#X connect 44 0 1 0;
#X connect 45 0 46 0;
#X connect 46 0 33 0;
#X connect 46 1 36 0;
#X connect 48 0 49 0;
#X connect 49 0 50 0;
#X connect 50 0 52 0;
#X connect 53 0 54 0;
#X connect 54 0 55 0;
#X connect 55 0 67 0;
#X connect 55 1 54 0;
#X connect 56 0 62 0;
#X connect 57 0 58 0;
#X connect 58 0 60 0;
#X connect 58 0 66 0;
#X connect 58 1 61 0;
#X connect 58 1 65 0;
#X connect 59 0 56 1;
#X connect 60 0 59 0;
#X connect 61 0 59 0;
#X connect 63 0 64 0;
#X connect 64 0 16 1;
#X connect 65 0 64 1;
#X connect 66 0 64 1;
#X connect 67 0 56 0;
#X restore 966 70 pd poly-seq;
#X obj 208 542 *~, f 8;
#X obj 261 512 line~;
#X obj 159 444 *~, f 8;
#X obj 212 419 line~;
#X obj 382 427 *~;
#X obj 966 95 spigot 1;
#X obj 731 243 spigot;
#X obj 752 388 sel 0, f 6;
#X msg 752 493 lerp pitch \$1;
#X obj 752 438 random 60;
#X obj 752 463 + 20;
#X obj 791 463 random 20;
#X obj 752 363 random 4;
#N canvas 3 35 1360 708 del 0;
#X obj 134 329 pd-dmtools/del4~;
#X obj 134 394 *~ 0.8;
#X obj 234 276 + 50;
#X obj 234 252 random 20;
#X obj 41 389 *~;
#X obj 251 329 pd-dmtools/del4~;
#X obj 134 418 s~ \$0-box-fb0;
#X obj 144 305 r~ \$0-box-fb1;
#X obj 251 394 *~ 0.8;
#X obj 261 305 r~ \$0-box-fb0;
#X obj 251 418 s~ \$0-box-fb1;
#X obj 59 124 metro 100;
#X obj 59 172 sel 0;
#X obj 59 148 random 20;
#X obj 59 196 t b b;
#X obj 59 340 line~;
#X msg 59 316 \$1 1;
#X obj 91 244 + 50;
#X obj 59 268 delay;
#X msg 59 292 0;
#X msg 84 292 0.5;
#X obj 134 245 inlet~;
#X obj 41 572 outlet~;
#X obj 351 276 + 50;
#X obj 351 252 random 20;
#X obj 91 220 random 400;
#X obj 41 519 pd-dmtools/pan~;
#X obj 104 572 outlet~;
#X obj 115 447 random 2000;
#X obj 115 471 * 0.001;
#X obj 115 495 - 1;
#X obj 27 47 r \$0-box-delay;
#X obj 27 71 sel 0;
#X msg 27 95 0;
#X obj 136 128 r \$0-box-delay-rate;
#X obj 166 35 ctlin;
#X obj 166 60 expr 300+($f1/127)*1200;
#X obj 134 270 *~ 0.6;
#X connect 0 0 1 0;
#X connect 0 0 4 0;
#X connect 1 0 6 0;
#X connect 2 0 0 1;
#X connect 3 0 2 0;
#X connect 4 0 26 0;
#X connect 4 0 26 1;
#X connect 5 0 8 0;
#X connect 5 0 4 0;
#X connect 7 0 0 0;
#X connect 8 0 10 0;
#X connect 9 0 5 0;
#X connect 11 0 13 0;
#X connect 12 0 14 0;
#X connect 13 0 12 0;
#X connect 14 0 18 0;
#X connect 14 0 20 0;
#X connect 14 1 25 0;
#X connect 14 1 28 0;
#X connect 14 1 3 0;
#X connect 14 1 24 0;
#X connect 15 0 4 1;
#X connect 16 0 15 0;
#X connect 17 0 18 1;
#X connect 18 0 19 0;
#X connect 19 0 16 0;
#X connect 20 0 16 0;
#X connect 21 0 37 0;
#X connect 23 0 5 1;
#X connect 24 0 23 0;
#X connect 25 0 17 0;
#X connect 26 0 22 0;
#X connect 26 1 27 0;
#X connect 28 0 29 0;
#X connect 29 0 30 0;
#X connect 31 0 32 0;
#X connect 32 0 33 0;
#X connect 32 1 11 0;
#X connect 33 0 11 0;
#X connect 33 0 16 0;
#X connect 34 0 13 1;
#X connect 35 0 36 0;
#X connect 36 0 13 1;
#X connect 37 0 0 0;
#X connect 37 0 5 0;
#X restore 22 438 pd del;
#X msg 1074 583 read -resize box-clip.wav \$1-box;
#X obj 770 190 r \$0-window-return-to-hann;
#X obj 261 482 r \$0-rev-poly-in;
#X obj 1057 75 r \$0-poly-midiin;
#X obj 159 13 r \$0-grano-midinote;
#X obj 212 394 r \$0-rev-grano-in;
#X obj 623 57 r \$0-pull-rate;
#X obj 400 397 line~;
#X obj 400 372 r \$0-pull-poly-in;
#X obj 1193 150 r \$0-poly-offset;
#X obj 1193 175 moses 55;
#X msg 1193 335 bend \$1;
#X obj 1193 255 metro 100;
#X obj 1193 280 random 16;
#X obj 1193 305 - 8;
#X msg 1193 200 1;
#X msg 1246 200 0;
#X obj 1246 225 t f f;
#X obj 605 191 +;
#X obj 573 6 loadbang;
#X msg 573 31 1;
#X msg 791 413 bang;
#X obj 702 551 pd-dmtools/comp~;
#N canvas 686 35 677 708 load 0;
#X obj 37 54 loadbang;
#X obj 37 104 outlet;
#X msg 37 79 threshold -30 \, ratio 5 \, att 2 \, rel 60 \, sc 0;
#X connect 0 0 2 0;
#X connect 2 0 1 0;
#X restore 813 551 pd load;
#X obj 12 388 *~;
#X obj 47 413 line~;
#X msg 22 328 bang;
#X obj 296 417 r \$0-c1;
#X obj 12 298 r \$0-box-loop-start;
#X obj 47 388 r \$0-box-loop-gain;
#X obj 194 372 line~;
#X obj 159 347 *~;
#X obj 194 347 r \$0-grano-gain;
#N canvas 914 35 449 708 random-teeth-sharp 0;
#X msg 25 371 teeth \$1;
#X obj 25 410 outlet;
#X obj 25 193 snapshot~;
#X obj 156 144 tgl 15 0 empty empty empty 17 7 0 10 -262144 -1 -1 1
1;
#X obj 156 164 metro;
#X obj 59 217 snapshot~;
#X obj 94 241 snapshot~;
#X obj 25 246 +;
#X obj 25 270 / 2;
#X obj 76 270 +;
#X obj 76 294 / 2;
#X obj 25 294 * 48;
#X obj 76 318 * 4;
#X obj 76 342 + 1;
#X obj 25 318 + 52;
#X obj 206 293 +;
#X obj 206 317 +;
#X obj 206 341 / 3;
#X obj 206 365 s \$0-impulse-metro-mod;
#X obj 156 120 loadbang;
#N canvas 156 156 450 300 load 0;
#X obj 15 12 loadbang;
#X msg 15 36 resolution 7 \, x 9 \, y 11 \, z 7 \, bang;
#X obj 15 60 outlet;
#X connect 0 0 1 0;
#X connect 1 0 2 0;
#X restore 25 41 pd load;
#X obj 280 90 random 3;
#X obj 280 114 sel 0;
#X obj 280 66 metro 3000;
#X obj 25 60 dym/gradient~;
#X msg 375 198 1;
#X msg 473 198 0;
#X obj 375 227 switch~;
#X obj 473 174 loadbang;
#X obj 375 174 r \$0-poly-on;
#X msg 102 371 sharp \$1;
#X connect 0 0 1 0;
#X connect 2 0 7 0;
#X connect 2 0 15 0;
#X connect 3 0 4 0;
#X connect 3 0 23 0;
#X connect 4 0 2 0;
#X connect 4 0 5 0;
#X connect 4 0 6 0;
#X connect 5 0 7 1;
#X connect 5 0 9 0;
#X connect 5 0 15 1;
#X connect 6 0 9 1;
#X connect 6 0 16 1;
#X connect 7 0 8 0;
#X connect 8 0 11 0;
#X connect 9 0 10 0;
#X connect 10 0 12 0;
#X connect 11 0 14 0;
#X connect 12 0 13 0;
#X connect 13 0 30 0;
#X connect 14 0 0 0;
#X connect 15 0 16 0;
#X connect 16 0 17 0;
#X connect 17 0 18 0;
#X connect 19 0 3 0;
#X connect 20 0 24 0;
#X connect 21 0 22 0;
#X connect 22 0 24 0;
#X connect 23 0 21 0;
#X connect 24 0 2 0;
#X connect 24 1 5 0;
#X connect 24 2 6 0;
#X connect 25 0 27 0;
#X connect 26 0 27 0;
#X connect 28 0 26 0;
#X connect 29 0 25 0;
#X connect 30 0 1 0;
#X restore 1176 95 pd random-teeth-sharp;
#X obj 61 636 s~ \$0-grano;
#X obj 23 606 s~ \$0-box-loop;
#X obj 877 506 +, f 5;
#X obj 909 481 *, f 11;
#X obj 877 381 t f b;
#X obj 909 431 * 0.01;
#X obj 909 406 random 25;
#X obj 909 456 + 0.75;
#X obj 383 662 s~ \$0-pull;
#X obj 208 662 s~ \$0-rev;
#X obj 452 396 s \$0-pullrevon;
#N canvas 686 35 677 708 load-etc 0;
#X obj 28 33 loadbang;
#X obj 28 320 outlet;
#X msg 482 301 sample playhead \$1;
#X msg 482 272 19.697;
#X msg 538 272 84.3434;
#X obj 482 151 metro 5000;
#X obj 482 175 random 3;
#X obj 482 199 sel 0;
#X obj 482 223 tgl 15 0 empty empty empty 17 7 0 10 -262144 -1 -1 0
1;
#X obj 482 243 sel 0 1;
#X msg 638 248 sample playhead reset 1 \, sample play 1 \, offset pitch
precision 100 \, sample note 36 \, grain duration 400 \, grain rate
150;
#X msg 38 277 sample playhead reset 0 \, sample play 0 \, offset pitch
precision 0 \, grain duration 700 \, grain rate 200;
#X obj 482 93 sel 1;
#X msg 482 122 1;
#X obj 566 151 delay 16000;
#X obj 482 64 r \$0-grano-noisy;
#X obj 549 122 r \$0-grano-playhead-noisy-rate;
#X obj 791 110 ctlin;
#X msg 791 160 grain dir \$1;
#X obj 791 135 expr round($f1/127);
#X obj 111 415 r \$0-grano-dir;
#X obj 290 403 loadbang;
#X obj 290 428 metro 150;
#X obj 290 453 random 100;
#X obj 111 440 * 100;
#X obj 290 478 >;
#X obj 290 503 == 0;
#X msg 290 528 grain dir \$1;
#X obj 500 380 loadbang;
#X obj 500 405 metro 100;
#X obj 500 430 random 2;
#X obj 500 455 sel 0;
#X obj 500 480 random 100;
#X obj 500 505 + 150;
#X msg 500 530 grain rate \$1;
#X obj 182 576 loadbang;
#X msg 182 601 window fade in 1 \, window fade out 1 \, window fade
time 15;
#X msg 28 57 grain duration unit 0 \, grain duration 400 \, grain rate
unit 0 \, grain rate 150 \, grain auto 1 \, sample play 1 \, sample
playhead 0 \, sample playhead reset 1 \, sample speed 100 \, sample
note 48 \, load sample /home/biejo/git/teaecetyrannis/0.36787944117/btp/box-clip.wav
\, window shape 1 \, load window symbol \, offset playhead unit 0 \,
offset playhead 1000 \, offset playhead chance 100 \, offset playhead
precision 0 \, offset pitch unit 0 \, offset pitch -12 \, offset pitch
chance 25 \, offset pitch precision 100 \, offset duration unit 0 \,
offset duration 0 \, offset duration chance 0 \, offset duration precision
0 \, att 0 \, dec 0 \, sus 100 \, rel 0 \, poly 0 \, legato 0 \, bendMode
0 \, bendRange 2 \, out 0;
#N canvas 3 35 1360 708 quad 0;
#X obj 15 406 outlet;
#X obj 15 212 r \$0-a;
#X obj 469 137 / 60000;
#X obj 529 82 % 60000;
#X obj 469 57 t f f, f 9;
#X obj 469 112 -;
#X obj 529 107 * 0.001;
#X floatatom 469 162 5 0 0 0 - - -;
#X floatatom 529 162 5 0 0 0 - - -;
#X obj 15 346 line;
#X msg 15 376 quad \$1;
#X msg 15 252 0;
#X msg 97 279 25 10000;
#X obj 97 254 delay 29500;
#X obj 187 254 delay 49500;
#X msg 187 279 10 15000;
#X obj 277 254 delay 64500;
#X msg 277 279 50 5000;
#X obj 367 254 delay 84500;
#X msg 367 279 5 10000;
#X obj 457 254 delay 99500;
#X msg 457 279 25 10000;
#X msg 547 279 0 4000;
#X msg 637 279 75 15000;
#X obj 547 254 delay 115500;
#X obj 637 254 delay 129500;
#X msg 727 279 0;
#X msg 469 27 159500;
#X obj 727 254 delay 159500;
#X connect 1 0 11 0;
#X connect 1 0 13 0;
#X connect 1 0 28 0;
#X connect 1 0 25 0;
#X connect 1 0 24 0;
#X connect 1 0 20 0;
#X connect 1 0 18 0;
#X connect 1 0 16 0;
#X connect 1 0 14 0;
#X connect 2 0 7 0;
#X connect 3 0 5 1;
#X connect 3 0 6 0;
#X connect 4 0 5 0;
#X connect 4 1 3 0;
#X connect 5 0 2 0;
#X connect 6 0 8 0;
#X connect 9 0 10 0;
#X connect 10 0 0 0;
#X connect 11 0 9 0;
#X connect 12 0 9 0;
#X connect 13 0 12 0;
#X connect 14 0 15 0;
#X connect 15 0 9 0;
#X connect 16 0 17 0;
#X connect 17 0 9 0;
#X connect 18 0 19 0;
#X connect 19 0 9 0;
#X connect 20 0 21 0;
#X connect 21 0 9 0;
#X connect 22 0 9 0;
#X connect 23 0 9 0;
#X connect 24 0 22 0;
#X connect 25 0 23 0;
#X connect 26 0 9 0;
#X connect 27 0 4 0;
#X connect 28 0 26 0;
#X restore 728 494 pd quad;
#X connect 0 0 37 0;
#X connect 2 0 1 0;
#X connect 3 0 2 0;
#X connect 4 0 2 0;
#X connect 5 0 6 0;
#X connect 6 0 7 0;
#X connect 7 0 8 0;
#X connect 8 0 9 0;
#X connect 9 0 3 0;
#X connect 9 1 4 0;
#X connect 10 0 1 0;
#X connect 11 0 1 0;
#X connect 12 0 13 0;
#X connect 12 0 14 0;
#X connect 12 0 11 0;
#X connect 12 1 5 0;
#X connect 12 1 10 0;
#X connect 13 0 5 0;
#X connect 14 0 8 0;
#X connect 15 0 12 0;
#X connect 16 0 5 1;
#X connect 17 0 19 0;
#X connect 18 0 1 0;
#X connect 19 0 18 0;
#X connect 20 0 24 0;
#X connect 21 0 22 0;
#X connect 22 0 23 0;
#X connect 23 0 25 0;
#X connect 24 0 25 1;
#X connect 25 0 26 0;
#X connect 26 0 27 0;
#X connect 27 0 1 0;
#X connect 28 0 29 0;
#X connect 29 0 30 0;
#X connect 30 0 31 0;
#X connect 31 0 32 0;
#X connect 32 0 33 0;
#X connect 33 0 34 0;
#X connect 34 0 1 0;
#X connect 35 0 36 0;
#X connect 36 0 1 0;
#X connect 37 0 1 0;
#X connect 38 0 1 0;
#X restore 472 13 pd load-etc;
#N canvas 823 65 267 678 grave 0;
#X obj 344 188 / 60000;
#X obj 404 133 % 60000;
#X obj 344 108 t f f, f 9;
#X obj 344 163 -;
#X obj 404 158 * 0.001;
#X floatatom 344 213 5 0 0 0 - - -;
#X floatatom 404 213 5 0 0 0 - - -;
#X obj 14 448 r \$0-a;
#X obj 14 623 outlet;
#X obj 14 498 delay 66500;
#X msg 304 603 0;
#X obj 100 498 delay 68500;
#X obj 211 498 delay 101500;
#X obj 304 498 delay 105500;
#X obj 422 498 delay 174500;
#X obj 515 498 delay 176500;
#X obj 633 498 delay 207500;
#X obj 726 498 delay 209500;
#X msg 344 83 209500;
#X msg 14 523 -50;
#X msg 211 523 -68;
#X msg 422 523 -55;
#X msg 633 523 -49;
#X connect 0 0 5 0;
#X connect 1 0 3 1;
#X connect 1 0 4 0;
#X connect 2 0 3 0;
#X connect 2 1 1 0;
#X connect 3 0 0 0;
#X connect 4 0 6 0;
#X connect 7 0 9 0;
#X connect 7 0 11 0;
#X connect 7 0 12 0;
#X connect 7 0 13 0;
#X connect 9 0 19 0;
#X connect 10 0 8 0;
#X connect 11 0 10 0;
#X connect 12 0 20 0;
#X connect 13 0 10 0;
#X connect 14 0 21 0;
#X connect 15 0 10 0;
#X connect 16 0 22 0;
#X connect 17 0 10 0;
#X connect 18 0 2 0;
#X connect 19 0 8 0;
#X connect 20 0 8 0;
#X connect 21 0 8 0;
#X connect 22 0 8 0;
#X restore 983 456 pd grave;
#X obj 808 39 r \$0-a;
#X obj 808 64 delay 334000;
#X obj 808 89 metro 100;
#N canvas 1027 35 336 708 quadsend 0;
#X obj 22 149 inlet~;
#X obj 56 174 inlet~;
#X obj 90 199 inlet~;
#X obj 124 224 inlet~;
#X obj 22 264 send~ \$0-grano-fL;
#X obj 56 289 send~ \$0-grano-fR;
#X obj 90 314 send~ \$0-grano-rR;
#X obj 124 338 send~ \$0-grano-rL;
#X connect 0 0 4 0;
#X connect 1 0 5 0;
#X connect 2 0 6 0;
#X connect 3 0 7 0;
#X restore 328 350 pd quadsend;
#X connect 1 0 2 0;
#X connect 2 0 65 0;
#X connect 3 0 4 1;
#X connect 5 0 96 0;
#X connect 5 2 115 0;
#X connect 5 3 115 1;
#X connect 5 4 115 2;
#X connect 5 5 115 3;
#X connect 6 0 89 0;
#X connect 6 1 91 0;
#X connect 7 0 18 0;
#X connect 7 0 27 0;
#X connect 8 0 11 0;
#X connect 8 0 32 0;
#X connect 9 0 25 0;
#X connect 10 0 9 0;
#X connect 10 1 8 0;
#X connect 11 0 12 0;
#X connect 12 0 24 0;
#X connect 13 1 14 0;
#X connect 14 0 7 1;
#X connect 14 0 20 0;
#X connect 14 0 109 0;
#X connect 14 1 21 0;
#X connect 14 1 22 0;
#X connect 14 1 27 1;
#X connect 14 1 27 2;
#X connect 14 1 41 0;
#X connect 14 1 19 0;
#X connect 14 1 63 0;
#X connect 15 0 7 1;
#X connect 16 0 7 1;
#X connect 17 0 18 1;
#X connect 18 0 107 0;
#X connect 19 0 17 1;
#X connect 20 0 17 0;
#X connect 20 0 27 2;
#X connect 21 0 7 1;
#X connect 22 0 23 0;
#X connect 23 0 15 0;
#X connect 24 0 83 0;
#X connect 25 0 13 0;
#X connect 26 0 27 2;
#X connect 26 0 17 0;
#X connect 27 0 108 0;
#X connect 28 0 29 0;
#X connect 29 0 35 0;
#X connect 29 0 57 0;
#X connect 29 1 30 0;
#X connect 30 0 37 0;
#X connect 31 0 34 0;
#X connect 32 0 28 0;
#X connect 33 0 5 1;
#X connect 34 0 33 0;
#X connect 35 0 36 0;
#X connect 36 0 33 0;
#X connect 37 0 31 1;
#X connect 38 0 7 1;
#X connect 39 0 103 0;
#X connect 40 0 43 0;
#X connect 40 1 42 0;
#X connect 40 2 39 0;
#X connect 41 0 40 0;
#X connect 42 0 103 0;
#X connect 43 0 103 0;
#X connect 45 0 51 0;
#X connect 45 0 55 0;
#X connect 45 0 48 0;
#X connect 46 0 49 0;
#X connect 47 0 45 0;
#X connect 47 1 46 0;
#X connect 50 0 56 0;
#X connect 50 1 48 0;
#X connect 50 1 49 0;
#X connect 51 0 87 0;
#X connect 52 0 51 1;
#X connect 53 0 87 0;
#X connect 54 0 53 1;
#X connect 55 0 87 1;
#X connect 56 0 47 0;
#X connect 57 0 31 0;
#X connect 58 0 60 0;
#X connect 58 1 86 0;
#X connect 59 0 7 1;
#X connect 60 0 61 0;
#X connect 61 0 59 0;
#X connect 62 0 59 0;
#X connect 63 0 58 0;
#X connect 64 0 100 0;
#X connect 64 0 99 0;
#X connect 64 1 99 0;
#X connect 65 0 3 0;
#X connect 66 0 57 1;
#X connect 67 0 52 0;
#X connect 68 0 56 1;
#X connect 69 0 5 0;
#X connect 70 0 54 0;
#X connect 71 0 83 1;
#X connect 72 0 55 1;
#X connect 73 0 72 0;
#X connect 74 0 75 0;
#X connect 75 0 80 0;
#X connect 75 1 81 0;
#X connect 76 0 47 0;
#X connect 77 0 78 0;
#X connect 78 0 79 0;
#X connect 79 0 76 0;
#X connect 80 0 77 0;
#X connect 81 0 82 0;
#X connect 82 0 76 0;
#X connect 82 1 77 0;
#X connect 83 0 9 1;
#X connect 84 0 85 0;
#X connect 85 0 10 0;
#X connect 86 0 62 0;
#X connect 87 0 27 0;
#X connect 87 1 7 0;
#X connect 88 0 87 3;
#X connect 89 0 64 0;
#X connect 89 0 87 1;
#X connect 89 0 100 0;
#X connect 90 0 89 1;
#X connect 91 0 6 0;
#X connect 92 0 26 0;
#X connect 93 0 6 0;
#X connect 94 0 90 0;
#X connect 95 0 96 1;
#X connect 96 0 53 0;
#X connect 96 0 99 0;
#X connect 97 0 95 0;
#X connect 98 0 47 1;
#X connect 101 0 38 0;
#X connect 102 0 101 1;
#X connect 103 0 101 0;
#X connect 103 1 105 0;
#X connect 104 0 106 0;
#X connect 105 0 104 0;
#X connect 106 0 102 0;
#X connect 110 0 5 1;
#X connect 111 0 102 1;
#X connect 112 0 113 0;
#X connect 113 0 114 0;
#X connect 114 0 24 0;
#X restore 12 12 pd btp;
#N canvas 3 35 1360 708 sections 0;
#X obj 11 912 s \$0-b;
#X obj 264 827 s \$0-b1;
#X obj 507 782 s \$0-c;
#X obj 768 812 s \$0-c1;
#X obj 622 117 s \$0-box-delay;
#X msg 622 92 0;
#X msg 21 817 1;
#X obj 21 842 s \$0-box-delay;
#X obj 374 117 s \$0-poly-gain;
#X msg 344 397 1;
#X msg 838 312 0;
#X msg 557 367 500;
#X obj 557 392 s \$0-grano-playhead-noisy-rate;
#X obj 838 337 s \$0-grano-noisy;
#X obj 344 422 s \$0-grano-noisy;
#X obj 364 282 s \$0-poly-low-gain;
#X msg 324 507 1;
#X msg 828 367 0;
#X obj 324 532 s \$0-pullmeNrev-short-att;
#X obj 828 392 s \$0-pullmeNrev-short-att;
#X obj 354 337 s \$0-poly-pw-stereo;
#X msg 354 312 0;
#X msg 537 527 1;
#X obj 537 502 delay 11000;
#X obj 537 552 s \$0-poly-pw-stereo;
#X msg 808 477 1;
#X obj 808 502 s \$0-poly-pw-stereo-random;
#X msg 527 607 1;
#X obj 304 617 delay 25000;
#X obj 527 582 delay 19000;
#X obj 304 667 s \$0-window-return-to-hann;
#X obj 527 632 s \$0-window-return-to-hann;
#X msg 304 642 0;
#X msg 334 452 15;
#X obj 334 477 s \$0-box-delay-rate;
#X msg 384 147 0;
#X obj 384 172 s \$0-poly-offset;
#X obj 577 282 s \$0-poly-offset;
#X msg 577 257 70;
#X msg 818 422 1;
#X obj 818 447 s \$0-poly-offset-random;
#X obj 597 172 s \$0-box-hi-gain;
#X msg 848 257 -12 3000;
#X msg 597 147 -100 10000;
#X obj 848 282 s \$0-box-hi-gain;
#X obj 517 662 delay 45000;
#X obj 517 712 s \$0-rev-poly-in;
#X obj 858 227 s \$0-pull-gain;
#X obj 1119 67 s \$0-box-gain;
#X obj 798 532 delay 30000;
#X msg 798 557 0 3000;
#X obj 798 582 s \$0-rev-poly-in;
#X obj 788 612 delay 30000;
#X msg 788 637 1 7000;
#X obj 788 662 s \$0-rev-grano-in;
#X msg 1024 367 48 0;
#X obj 1024 392 s \$0-grano-midinote;
#X msg 1044 232 0;
#X obj 1044 257 s \$0-poly-midiin;
#X obj 91 362 s \$0-grano-midinote;
#X msg 91 337 48 127;
#X msg 31 737 700;
#X obj 31 762 s \$0-pull-rate;
#X obj 778 742 s \$0-pull-poly-in;
#X obj 778 692 delay 30000;
#X msg 778 717 1 7000;
#X obj 1014 612 s \$0-end;
#X obj 1024 547 s \$0-poly-gain;
#X msg 61 522 0 \, 149 90000;
#X obj 61 547 s \$0-pull-lop;
#X obj 375 117 bng 15 250 50 0 empty empty empty 17 7 0 10 -262144
-1 -1;
#X obj 1044 257 bng 15 250 50 0 empty empty empty 17 7 0 10 -262144
-1 -1;
#X obj 1024 392 bng 15 250 50 0 empty empty empty 17 7 0 10 -262144
-1 -1;
#X obj 1119 67 bng 15 250 50 0 empty empty empty 17 7 0 10 -262144
-1 -1;
#X obj 858 227 bng 15 250 50 0 empty empty empty 17 7 0 10 -262144
-1 -1;
#X obj 848 282 bng 15 250 50 0 empty empty empty 17 7 0 10 -262144
-1 -1;
#X obj 838 337 bng 15 250 50 0 empty empty empty 17 7 0 10 -262144
-1 -1;
#X obj 828 392 bng 15 250 50 0 empty empty empty 17 7 0 10 -262144
-1 -1;
#X obj 818 447 bng 15 250 50 0 empty empty empty 17 7 0 10 -262144
-1 -1;
#X obj 808 502 bng 15 250 50 0 empty empty empty 17 7 0 10 -262144
-1 -1;
#X obj 798 582 bng 15 250 50 0 empty empty empty 17 7 0 10 -262144
-1 -1;
#X obj 788 662 bng 15 250 50 0 empty empty empty 17 7 0 10 -262144
-1 -1;
#X obj 778 742 bng 15 250 50 0 empty empty empty 17 7 0 10 -262144
-1 -1;
#X obj 622 117 bng 15 250 50 0 empty empty empty 17 7 0 10 -262144
-1 -1;
#X obj 597 172 bng 15 250 50 0 empty empty empty 17 7 0 10 -262144
-1 -1;
#X obj 557 392 bng 15 250 50 0 empty empty empty 17 7 0 10 -262144
-1 -1;
#X obj 577 282 bng 15 250 50 0 empty empty empty 17 7 0 10 -262144
-1 -1;
#X obj 537 552 bng 15 250 50 0 empty empty empty 17 7 0 10 -262144
-1 -1;
#X obj 527 632 bng 15 250 50 0 empty empty empty 17 7 0 10 -262144
-1 -1;
#X obj 517 712 bng 15 250 50 0 empty empty empty 17 7 0 10 -262144
-1 -1;
#X obj 304 667 bng 15 250 50 0 empty empty empty 17 7 0 10 -262144
-1 -1;
#X obj 324 532 bng 15 250 50 0 empty empty empty 17 7 0 10 -262144
-1 -1;
#X obj 334 477 bng 15 250 50 0 empty empty empty 17 7 0 10 -262144
-1 -1;
#X obj 354 337 bng 15 250 50 0 empty empty empty 17 7 0 10 -262144
-1 -1;
#X obj 364 282 bng 15 250 50 0 empty empty empty 17 7 0 10 -262144
-1 -1;
#X obj 384 172 bng 15 250 50 0 empty empty empty 17 7 0 10 -262144
-1 -1;
#X obj 344 422 bng 15 250 50 0 empty empty empty 17 7 0 10 -262144
-1 -1;
#X obj 21 842 bng 15 250 50 0 empty empty empty 17 7 0 10 -262144 -1
-1;
#X obj 31 762 bng 15 250 50 0 empty empty empty 17 7 0 10 -262144 -1
-1;
#X obj 61 547 bng 15 250 50 0 empty empty empty 17 7 0 10 -262144 -1
-1;
#X obj 91 362 bng 15 250 50 0 empty empty empty 17 7 0 10 -262144 -1
-1;
#X obj 11 12 bng 15 250 50 0 empty \$0-a empty 17 7 0 10 -262144 -1
-1;
#X obj 264 12 bng 15 250 50 0 empty \$0-b empty 17 7 0 10 -262144 -1
-1;
#X obj 507 12 bng 15 250 50 0 empty \$0-b1 empty 17 7 0 10 -262144
-1 -1;
#X obj 768 12 bng 15 250 50 0 empty \$0-c empty 17 7 0 10 -262144 -1
-1;
#X obj 1014 12 bng 15 250 50 0 empty \$0-c1 empty 17 7 0 10 -262144
-1 -1;
#X obj 1226 12 bng 15 250 50 0 empty \$0-end empty 17 7 0 10 -262144
-1 -1;
#X text 36 11 A;
#X text 288 11 B;
#X text 531 11 B1;
#X text 792 11 C;
#X text 1038 11 C1;
#X obj 51 602 s \$0-pull-rate;
#X obj 51 602 bng 15 250 50 0 empty empty empty 17 7 0 10 -262144 -1
-1;
#X msg 51 577 1400;
#X msg 81 392 1;
#X obj 81 417 s \$0-window-return-to-hann;
#X obj 81 417 bng 15 250 50 0 empty empty empty 17 7 0 10 -262144 -1
-1;
#X obj 111 252 bng 15 250 50 0 empty empty empty 17 7 0 10 -262144
-1 -1;
#X msg 131 142 -12;
#X obj 131 167 s \$0-box-hi-gain;
#X obj 141 112 s \$0-box-gain;
#X obj 71 497 s \$0-pull-gain;
#X obj 344 367 s \$0-poly-on;
#X obj 344 367 bng 15 250 50 0 empty empty empty 17 7 0 10 -262144
-1 -1;
#X obj 111 252 s \$0-box-loop-start;
#X obj 868 172 s \$0-box-loop-gain;
#X obj 868 172 bng 15 250 50 0 empty empty empty 17 7 0 10 -262144
-1 -1;
#X obj 121 222 s \$0-box-loop-gain;
#X msg 121 197 1;
#X obj 121 222 bng 15 250 50 0 empty empty empty 17 7 0 10 -262144
-1 -1;
#X obj 141 112 bng 15 250 50 0 empty empty empty 17 7 0 10 -262144
-1 -1;
#X obj 131 167 bng 15 250 50 0 empty empty empty 17 7 0 10 -262144
-1 -1;
#X msg 868 147 0 28000;
#X obj 11 882 delay 90000;
#X obj 21 792 delay 60000;
#X obj 31 712 delay 45000;
#X obj 264 797 delay 75000;
#X obj 507 752 delay 60000;
#X obj 1014 422 delay 11000;
#X msg 11 32 A;
#X obj 11 57 print section;
#X obj 264 57 print section;
#X msg 264 32 B;
#X obj 507 57 print section;
#X msg 507 32 B1;
#X obj 768 57 print section;
#X msg 768 32 C;
#X obj 1014 57 print section;
#X msg 1014 32 C1;
#X obj 1226 57 print section;
#X obj 1054 122 s \$0-poly-offset-random;
#X obj 1054 122 bng 15 250 50 0 empty empty empty 17 7 0 10 -262144
-1 -1;
#X msg 1054 97 0;
#X obj 1054 177 bng 15 250 50 0 empty empty empty 17 7 0 10 -262144
-1 -1;
#X obj 1054 177 s \$0-poly-offset;
#X msg 1054 152 70;
#X obj 1194 485 timer;
#X obj 1194 590 / 60000;
#X obj 1254 535 % 60000;
#X obj 1194 510 t f f, f 9;
#X obj 1194 615 pack f f, f 9;
#X obj 1194 565 -;
#X obj 1194 665 print length;
#X obj 768 782 delay 75000;
#X obj 284 697 delay 45000;
#X obj 284 747 s \$0-rev-poly-in;
#X msg 587 202 0 100;
#X obj 587 227 s \$0-rev-poly-in;
#X obj 587 227 bng 15 250 50 0 empty empty empty 17 7 0 10 -262144
-1 -1;
#X obj 314 587 s \$0-poly-rev-drywet;
#X obj 314 587 bng 15 250 50 0 empty empty empty 17 7 0 10 -262144
-1 -1;
#X obj 567 337 s \$0-poly-rev-drywet;
#X obj 567 337 bng 15 250 50 0 empty empty empty 17 7 0 10 -262144
-1 -1;
#X obj 284 747 bng 15 250 50 0 empty empty empty 17 7 0 10 -262144
-1 -1;
#X obj 374 227 s \$0-poly-hi-gain;
#X obj 374 227 bng 15 250 50 0 empty empty empty 17 7 0 10 -262144
-1 -1;
#X msg 284 722 0.1 500;
#X msg 517 687 0.1 500;
#X obj 1044 207 delay 1000;
#X obj 622 62 s \$0-pull-rate;
#X obj 622 62 bng 15 250 50 0 empty empty empty 17 7 0 10 -262144 -1
-1;
#X msg 878 92 700;
#X obj 878 117 s \$0-pull-rate;
#X obj 878 117 bng 15 250 50 0 empty empty empty 17 7 0 10 -262144
-1 -1;
#X msg 622 37 1750;
#X obj 41 682 s \$0-grano-gain;
#X msg 101 282 0;
#X obj 41 632 delay 2000;
#X obj 41 682 bng 15 250 50 0 empty empty empty 17 7 0 10 -262144 -1
-1;
#X obj 101 307 s \$0-grano-gain;
#X obj 101 307 bng 15 250 50 0 empty empty empty 17 7 0 10 -262144
-1 -1;
#X msg 41 657 1 2500;
#X obj 1034 337 s \$0-poly-rev-drywet;
#X obj 1034 337 bng 15 250 50 0 empty empty empty 17 7 0 10 -262144
-1 -1;
#X msg 1034 312 0 5;
#X obj 1034 287 delay 1000;
#X text 1243 11 END;
#X msg 1226 32 END;
#X obj 385 62 s \$0-poly-midiin;
#X obj 385 62 bng 15 250 50 0 empty empty empty 17 7 0 10 -262144 -1
-1;
#X msg 385 37 1;
#X msg 141 87 0.7;
#X msg 1119 42 0 8000;
#X msg 858 202 0 14000;
#X msg 71 472 2.8;
#X obj 1024 472 s \$0-pull-gain;
#X obj 1024 472 bng 15 250 50 0 empty empty empty 17 7 0 10 -262144
-1 -1;
#X msg 374 202 -100 \, -9 50000;
#X msg 364 257 -100 \, -6 40000;
#X obj 61 447 delay 10000;
#X msg 1024 447 0.8 2500;
#X obj 1254 560 * 0.001;
#X msg 1194 640 \$1 m. \$2 s.;
#X msg 1236 97 0;
#X obj 1236 122 s \$0-pull-gain;
#X obj 1236 122 bng 15 250 50 0 empty empty empty 17 7 0 10 -262144
-1 -1;
#X msg 314 562 0;
#X msg 567 312 0.15 5;
#X msg 375 92 0 \, 0.16 25000;
#X obj 151 57 bng 15 250 50 0 empty empty empty 17 7 0 10 -262144 -1
-1;
#X obj 151 57 s \$0-box-space;
#X msg 151 32 1 5;
#X obj 888 62 bng 15 250 50 0 empty empty empty 17 7 0 10 -262144 -1
-1;
#X obj 888 62 s \$0-box-space;
#X msg 888 37 1 15000;
#X obj 547 422 delay 2500;
#X msg 547 447 0.2 5;
#X obj 547 472 s \$0-box-space;
#X obj 547 472 bng 15 250 50 0 empty empty empty 17 7 0 10 -262144
-1 -1;
#X obj 1015 801 / 60000;
#X obj 1075 746 % 60000;
#X obj 1015 721 t f f, f 9;
#X obj 1015 776 -;
#X obj 1075 771 * 0.001;
#X floatatom 1015 826 5 0 0 0 - - -;
#X floatatom 1075 826 5 0 0 0 - - -;
#X obj 1014 497 delay 16000;
#X msg 1024 522 0 5;
#X msg 1015 691 225000;
#X obj 1014 582 delay 37000;
#X connect 5 0 4 0;
#X connect 5 0 83 0;
#X connect 6 0 7 0;
#X connect 6 0 97 0;
#X connect 9 0 14 0;
#X connect 9 0 96 0;
#X connect 10 0 13 0;
#X connect 10 0 76 0;
#X connect 11 0 12 0;
#X connect 11 0 85 0;
#X connect 16 0 18 0;
#X connect 16 0 91 0;
#X connect 17 0 19 0;
#X connect 17 0 77 0;
#X connect 21 0 20 0;
#X connect 21 0 93 0;
#X connect 22 0 24 0;
#X connect 22 0 87 0;
#X connect 23 0 22 0;
#X connect 25 0 26 0;
#X connect 25 0 79 0;
#X connect 27 0 31 0;
#X connect 27 0 88 0;
#X connect 28 0 32 0;
#X connect 29 0 27 0;
#X connect 32 0 30 0;
#X connect 32 0 90 0;
#X connect 33 0 34 0;
#X connect 33 0 92 0;
#X connect 35 0 36 0;
#X connect 35 0 95 0;
#X connect 38 0 37 0;
#X connect 38 0 86 0;
#X connect 39 0 40 0;
#X connect 39 0 78 0;
#X connect 42 0 44 0;
#X connect 42 0 75 0;
#X connect 43 0 41 0;
#X connect 43 0 84 0;
#X connect 45 0 178 0;
#X connect 49 0 50 0;
#X connect 50 0 51 0;
#X connect 50 0 80 0;
#X connect 52 0 53 0;
#X connect 53 0 54 0;
#X connect 53 0 81 0;
#X connect 55 0 56 0;
#X connect 55 0 72 0;
#X connect 57 0 58 0;
#X connect 57 0 71 0;
#X connect 60 0 59 0;
#X connect 60 0 100 0;
#X connect 61 0 62 0;
#X connect 61 0 98 0;
#X connect 64 0 65 0;
#X connect 65 0 63 0;
#X connect 65 0 82 0;
#X connect 68 0 69 0;
#X connect 68 0 99 0;
#X connect 101 0 60 0;
#X connect 101 0 114 0;
#X connect 101 0 119 0;
#X connect 101 0 118 0;
#X connect 101 0 129 0;
#X connect 101 0 115 0;
#X connect 101 0 134 0;
#X connect 101 0 135 0;
#X connect 101 0 136 0;
#X connect 101 0 140 0;
#X connect 101 0 157 0;
#X connect 101 0 187 0;
#X connect 101 0 188 0;
#X connect 101 0 202 0;
#X connect 101 0 210 0;
#X connect 101 0 222 0;
#X connect 102 0 219 0;
#X connect 102 0 9 0;
#X connect 102 0 209 0;
#X connect 102 0 16 0;
#X connect 102 0 21 0;
#X connect 102 0 33 0;
#X connect 102 0 35 0;
#X connect 102 0 124 0;
#X connect 102 0 137 0;
#X connect 102 0 143 0;
#X connect 102 0 165 0;
#X connect 102 0 208 0;
#X connect 102 0 201 0;
#X connect 102 0 217 0;
#X connect 102 0 28 0;
#X connect 103 0 5 0;
#X connect 103 0 11 0;
#X connect 103 0 23 0;
#X connect 103 0 29 0;
#X connect 103 0 38 0;
#X connect 103 0 43 0;
#X connect 103 0 45 0;
#X connect 103 0 138 0;
#X connect 103 0 145 0;
#X connect 103 0 167 0;
#X connect 103 0 218 0;
#X connect 103 0 185 0;
#X connect 103 0 226 0;
#X connect 104 0 10 0;
#X connect 104 0 17 0;
#X connect 104 0 25 0;
#X connect 104 0 39 0;
#X connect 104 0 42 0;
#X connect 104 0 204 0;
#X connect 104 0 49 0;
#X connect 104 0 52 0;
#X connect 104 0 64 0;
#X connect 104 0 133 0;
#X connect 104 0 147 0;
#X connect 104 0 164 0;
#X connect 104 0 182 0;
#X connect 104 0 225 0;
#X connect 105 0 203 0;
#X connect 105 0 55 0;
#X connect 105 0 139 0;
#X connect 105 0 149 0;
#X connect 105 0 153 0;
#X connect 105 0 179 0;
#X connect 105 0 196 0;
#X connect 106 0 198 0;
#X connect 106 0 157 1;
#X connect 106 0 214 0;
#X connect 114 0 112 0;
#X connect 114 0 113 0;
#X connect 115 0 116 0;
#X connect 115 0 117 0;
#X connect 118 0 125 0;
#X connect 119 0 120 0;
#X connect 119 0 132 0;
#X connect 124 0 123 0;
#X connect 129 0 128 0;
#X connect 129 0 130 0;
#X connect 133 0 126 0;
#X connect 133 0 127 0;
#X connect 134 0 0 0;
#X connect 135 0 6 0;
#X connect 136 0 61 0;
#X connect 137 0 1 0;
#X connect 138 0 2 0;
#X connect 139 0 211 0;
#X connect 139 0 237 0;
#X connect 140 0 141 0;
#X connect 143 0 142 0;
#X connect 145 0 144 0;
#X connect 147 0 146 0;
#X connect 149 0 148 0;
#X connect 152 0 156 0;
#X connect 153 0 151 0;
#X connect 153 0 152 0;
#X connect 156 0 154 0;
#X connect 156 0 155 0;
#X connect 157 0 160 0;
#X connect 158 0 161 0;
#X connect 159 0 162 1;
#X connect 159 0 212 0;
#X connect 160 0 162 0;
#X connect 160 1 159 0;
#X connect 161 0 213 0;
#X connect 162 0 158 0;
#X connect 164 0 3 0;
#X connect 165 0 177 0;
#X connect 167 0 168 0;
#X connect 167 0 169 0;
#X connect 177 0 166 0;
#X connect 177 0 174 0;
#X connect 178 0 46 0;
#X connect 178 0 89 0;
#X connect 179 0 57 0;
#X connect 182 0 183 0;
#X connect 182 0 184 0;
#X connect 185 0 180 0;
#X connect 185 0 181 0;
#X connect 187 0 190 0;
#X connect 187 0 191 0;
#X connect 188 0 192 0;
#X connect 192 0 186 0;
#X connect 192 0 189 0;
#X connect 195 0 193 0;
#X connect 195 0 194 0;
#X connect 196 0 195 0;
#X connect 198 0 150 0;
#X connect 201 0 199 0;
#X connect 201 0 200 0;
#X connect 202 0 121 0;
#X connect 202 0 131 0;
#X connect 203 0 48 0;
#X connect 203 0 73 0;
#X connect 204 0 47 0;
#X connect 204 0 74 0;
#X connect 205 0 122 0;
#X connect 208 0 175 0;
#X connect 208 0 176 0;
#X connect 209 0 15 0;
#X connect 209 0 94 0;
#X connect 210 0 205 0;
#X connect 210 0 68 0;
#X connect 211 0 206 0;
#X connect 211 0 207 0;
#X connect 212 0 161 1;
#X connect 213 0 163 0;
#X connect 214 0 215 0;
#X connect 214 0 216 0;
#X connect 217 0 170 0;
#X connect 217 0 171 0;
#X connect 218 0 172 0;
#X connect 218 0 173 0;
#X connect 219 0 8 0;
#X connect 219 0 70 0;
#X connect 222 0 220 0;
#X connect 222 0 221 0;
#X connect 225 0 223 0;
#X connect 225 0 224 0;
#X connect 226 0 227 0;
#X connect 227 0 228 0;
#X connect 227 0 229 0;
#X connect 230 0 235 0;
#X connect 231 0 233 1;
#X connect 231 0 234 0;
#X connect 232 0 233 0;
#X connect 232 1 231 0;
#X connect 233 0 230 0;
#X connect 234 0 236 0;
#X connect 237 0 238 0;
#X connect 237 0 240 0;
#X connect 238 0 67 0;
#X connect 239 0 232 0;
#X connect 240 0 66 0;
#X restore 12 70 pd sections;
#X obj 12 235 s \$0-a;
#X msg 12 210 bang;
#X text 49 210 iniciar;
#X obj 12 110 r pd;
#X obj 12 135 route dsp;
#X msg 12 160 bang;
#X obj 12 185 delay 1000;
#X obj 96 180 s \$0-rec-start;
#X obj 184 279 loadbang;
#X msg 184 324 \; pd dsp 1;
#X connect 4 0 3 0;
#X connect 6 0 7 0;
#X connect 7 0 8 0;
#X connect 8 0 9 0;
#X connect 8 0 10 0;
#X connect 9 0 4 0;
